%TF.GenerationSoftware,KiCad,Pcbnew,7.0.10*%
%TF.CreationDate,2024-04-28T13:40:23+05:00*%
%TF.ProjectId,custom_keyboard,63757374-6f6d-45f6-9b65-79626f617264,rev?*%
%TF.SameCoordinates,Original*%
%TF.FileFunction,Copper,L1,Top*%
%TF.FilePolarity,Positive*%
%FSLAX46Y46*%
G04 Gerber Fmt 4.6, Leading zero omitted, Abs format (unit mm)*
G04 Created by KiCad (PCBNEW 7.0.10) date 2024-04-28 13:40:23*
%MOMM*%
%LPD*%
G01*
G04 APERTURE LIST*
%TA.AperFunction,ComponentPad*%
%ADD10C,1.400000*%
%TD*%
%TA.AperFunction,ComponentPad*%
%ADD11O,1.400000X1.400000*%
%TD*%
%TA.AperFunction,ComponentPad*%
%ADD12O,1.600000X2.000000*%
%TD*%
%TA.AperFunction,ComponentPad*%
%ADD13R,2.000000X2.000000*%
%TD*%
%TA.AperFunction,ComponentPad*%
%ADD14C,2.000000*%
%TD*%
%TA.AperFunction,ComponentPad*%
%ADD15R,2.000000X3.200000*%
%TD*%
%TA.AperFunction,ComponentPad*%
%ADD16R,1.752600X1.752600*%
%TD*%
%TA.AperFunction,ComponentPad*%
%ADD17C,1.752600*%
%TD*%
%TA.AperFunction,ComponentPad*%
%ADD18R,0.850000X0.850000*%
%TD*%
%TA.AperFunction,ComponentPad*%
%ADD19O,0.850000X0.850000*%
%TD*%
%TA.AperFunction,ComponentPad*%
%ADD20C,3.300000*%
%TD*%
%TA.AperFunction,ViaPad*%
%ADD21C,0.800000*%
%TD*%
%TA.AperFunction,Conductor*%
%ADD22C,0.250000*%
%TD*%
G04 APERTURE END LIST*
D10*
%TO.P,R2,1*%
%TO.N,+5V*%
X63182500Y-30162500D03*
D11*
%TO.P,R2,2*%
%TO.N,Net-(U1-F5)*%
X68262500Y-30162500D03*
%TD*%
D10*
%TO.P,R1,1*%
%TO.N,+5V*%
X63182500Y-27012500D03*
D11*
%TO.P,R1,2*%
%TO.N,Net-(U1-F4)*%
X68262500Y-27012500D03*
%TD*%
D12*
%TO.P,Brd1,1,GND*%
%TO.N,GND*%
X41623750Y-17975000D03*
%TO.P,Brd1,2,VCC*%
%TO.N,+5V*%
X44163750Y-17975000D03*
%TO.P,Brd1,3,SCL*%
%TO.N,Net-(Brd1-SCL)*%
X46703750Y-17975000D03*
%TO.P,Brd1,4,SDA*%
%TO.N,Net-(Brd1-SDA)*%
X49243750Y-17975000D03*
%TD*%
D13*
%TO.P,SW1,A,A*%
%TO.N,Net-(U1-F4)*%
X60881250Y-55775000D03*
D14*
%TO.P,SW1,B,B*%
%TO.N,Net-(U1-F5)*%
X65881250Y-55775000D03*
%TO.P,SW1,C,C*%
%TO.N,GND*%
X63381250Y-55775000D03*
D15*
%TO.P,SW1,MP*%
%TO.N,N/C*%
X57781250Y-48275000D03*
X68981250Y-48275000D03*
D14*
%TO.P,SW1,S1,S1*%
%TO.N,Net-(U1-B6)*%
X65881250Y-41275000D03*
%TO.P,SW1,S2,S2*%
%TO.N,GND*%
X60881250Y-41275000D03*
%TD*%
D16*
%TO.P,U1,1,TX*%
%TO.N,Net-(J1-Pin_1)*%
X18973000Y-56832500D03*
D17*
%TO.P,U1,2,RX*%
%TO.N,Net-(J1-Pin_2)*%
X21513000Y-56832500D03*
%TO.P,U1,3,GND*%
%TO.N,GND*%
X24053000Y-56832500D03*
%TO.P,U1,4,GND*%
X26593000Y-56832500D03*
%TO.P,U1,5,SDA*%
%TO.N,Net-(Brd1-SDA)*%
X29133000Y-56832500D03*
%TO.P,U1,6,SCL*%
%TO.N,Net-(Brd1-SCL)*%
X31673000Y-56832500D03*
%TO.P,U1,7,D4*%
%TO.N,Column 0*%
X34213000Y-56832500D03*
%TO.P,U1,8,C6*%
%TO.N,Column 1*%
X36753000Y-56832500D03*
%TO.P,U1,9,D7*%
%TO.N,Column 2*%
X39293000Y-56832500D03*
%TO.P,U1,10,E6*%
%TO.N,Row 0*%
X41833000Y-56832500D03*
%TO.P,U1,11,B4*%
%TO.N,Row 1*%
X44373000Y-56832500D03*
%TO.P,U1,12,B5*%
%TO.N,Row 2*%
X46913000Y-56832500D03*
%TO.P,U1,13,B6*%
%TO.N,Net-(U1-B6)*%
X46913000Y-41592500D03*
%TO.P,U1,14,B2*%
%TO.N,unconnected-(U1-B2-Pad14)*%
X44373000Y-41592500D03*
%TO.P,U1,15,B3*%
%TO.N,unconnected-(U1-B3-Pad15)*%
X41833000Y-41592500D03*
%TO.P,U1,16,B1*%
%TO.N,unconnected-(U1-B1-Pad16)*%
X39293000Y-41592500D03*
%TO.P,U1,17,F7*%
%TO.N,unconnected-(U1-F7-Pad17)*%
X36753000Y-41592500D03*
%TO.P,U1,18,F6*%
%TO.N,unconnected-(U1-F6-Pad18)*%
X34213000Y-41592500D03*
%TO.P,U1,19,F5*%
%TO.N,Net-(U1-F5)*%
X31673000Y-41592500D03*
%TO.P,U1,20,F4*%
%TO.N,Net-(U1-F4)*%
X29133000Y-41592500D03*
%TO.P,U1,21,VCC*%
%TO.N,unconnected-(U1-VCC-Pad21)*%
X26593000Y-41592500D03*
%TO.P,U1,22,RST*%
%TO.N,+5V*%
X24053000Y-41592500D03*
%TO.P,U1,23,GND*%
%TO.N,GND*%
X21513000Y-41592500D03*
%TO.P,U1,24,RAW*%
%TO.N,unconnected-(U1-RAW-Pad24)*%
X18973000Y-41592500D03*
%TD*%
D18*
%TO.P,J1,1,Pin_1*%
%TO.N,Net-(J1-Pin_1)*%
X20425000Y-34631250D03*
D19*
%TO.P,J1,2,Pin_2*%
%TO.N,Net-(J1-Pin_2)*%
X20425000Y-33631250D03*
%TD*%
D20*
%TO.P,MX1,1,1*%
%TO.N,Column 0*%
X23177500Y-68897500D03*
%TO.P,MX1,2,2*%
%TO.N,Net-(D1-A)*%
X29527500Y-66357500D03*
%TD*%
%TO.P,MX2,1,1*%
%TO.N,Column 1*%
X42227500Y-68897500D03*
%TO.P,MX2,2,2*%
%TO.N,Net-(D2-A)*%
X48577500Y-66357500D03*
%TD*%
%TO.P,MX5,1,1*%
%TO.N,Column 1*%
X42227500Y-87947500D03*
%TO.P,MX5,2,2*%
%TO.N,Net-(D5-A)*%
X48577500Y-85407500D03*
%TD*%
%TO.P,MX4,1,1*%
%TO.N,Column 0*%
X23177500Y-87947500D03*
%TO.P,MX4,2,2*%
%TO.N,Net-(D4-A)*%
X29527500Y-85407500D03*
%TD*%
%TO.P,MX7,1,1*%
%TO.N,Column 0*%
X23177500Y-106997500D03*
%TO.P,MX7,2,2*%
%TO.N,Net-(D7-A)*%
X29527500Y-104457500D03*
%TD*%
%TO.P,MX9,1,1*%
%TO.N,Column 2*%
X61277500Y-106997500D03*
%TO.P,MX9,2,2*%
%TO.N,Net-(D9-A)*%
X67627500Y-104457500D03*
%TD*%
%TO.P,MX6,1,1*%
%TO.N,Column 2*%
X61277500Y-87947500D03*
%TO.P,MX6,2,2*%
%TO.N,Net-(D6-A)*%
X67627500Y-85407500D03*
%TD*%
%TO.P,MX8,1,1*%
%TO.N,Column 1*%
X42227500Y-106997500D03*
%TO.P,MX8,2,2*%
%TO.N,Net-(D8-A)*%
X48577500Y-104457500D03*
%TD*%
%TO.P,MX3,1,1*%
%TO.N,Column 2*%
X61277500Y-68897500D03*
%TO.P,MX3,2,2*%
%TO.N,Net-(D3-A)*%
X67627500Y-66357500D03*
%TD*%
D21*
%TO.N,Row 0*%
X32543750Y-76993750D03*
X45243750Y-76993750D03*
X65087500Y-76993750D03*
X32543750Y-76993750D03*
%TO.N,Row 1*%
X32543750Y-96043750D03*
X64293750Y-96043750D03*
X45243750Y-96043750D03*
%TO.N,Row 2*%
X46831250Y-115093750D03*
X65881250Y-115093750D03*
X32543750Y-115093750D03*
%TO.N,Net-(Brd1-SDA)*%
X47625000Y-28575000D03*
%TO.N,Net-(Brd1-SCL)*%
X47625000Y-32543750D03*
%TD*%
D22*
%TO.N,+5V*%
X63182500Y-28605000D02*
X63182500Y-27012500D01*
X56862500Y-34925000D02*
X63182500Y-28605000D01*
X29926750Y-35718750D02*
X57626250Y-35718750D01*
X57626250Y-35718750D02*
X63182500Y-30162500D01*
X24053000Y-41592500D02*
X29926750Y-35718750D01*
%TO.N,Net-(U1-F4)*%
X70306250Y-29056250D02*
X68262500Y-27012500D01*
X66725000Y-57100000D02*
X70306250Y-53518750D01*
X70306250Y-53518750D02*
X70306250Y-29056250D01*
X62206250Y-57100000D02*
X66725000Y-57100000D01*
X60881250Y-55775000D02*
X62206250Y-57100000D01*
%TO.N,Net-(U1-F5)*%
X67206250Y-34925000D02*
X67206250Y-31218750D01*
X67206250Y-31218750D02*
X68262500Y-30162500D01*
X33840208Y-39425292D02*
X62705958Y-39425292D01*
X31673000Y-41592500D02*
X33840208Y-39425292D01*
X67206250Y-38893750D02*
X67206250Y-34925000D01*
X62705958Y-39425292D02*
X67206250Y-34925000D01*
X67206250Y-54450000D02*
X67206250Y-38893750D01*
%TO.N,+5V*%
X24053000Y-41034500D02*
X24053000Y-41592500D01*
X56862500Y-34925000D02*
X30162500Y-34925000D01*
X30162500Y-34925000D02*
X24053000Y-41034500D01*
%TO.N,Net-(U1-F5)*%
X65881250Y-55775000D02*
X67206250Y-54450000D01*
%TO.N,Net-(U1-B6)*%
X64481542Y-39875292D02*
X48630208Y-39875292D01*
X48630208Y-39875292D02*
X46913000Y-41592500D01*
X65881250Y-41275000D02*
X64481542Y-39875292D01*
%TO.N,GND*%
X21513000Y-42944250D02*
X21513000Y-41592500D01*
X28768750Y-50200000D02*
X21513000Y-42944250D01*
X57806250Y-50200000D02*
X28768750Y-50200000D01*
X63381250Y-55775000D02*
X57806250Y-50200000D01*
X22714300Y-42793800D02*
X21513000Y-41592500D01*
X59362450Y-42793800D02*
X22714300Y-42793800D01*
X60881250Y-41275000D02*
X59362450Y-42793800D01*
X20637500Y-53417000D02*
X20637500Y-42468000D01*
X24053000Y-56832500D02*
X20637500Y-53417000D01*
X20637500Y-42468000D02*
X21513000Y-41592500D01*
%TO.N,Row 0*%
X46119250Y-61118750D02*
X41833000Y-56832500D01*
X65087500Y-76993750D02*
X45243750Y-76993750D01*
X32543750Y-76993750D02*
X45243750Y-76993750D01*
X68445572Y-70826822D02*
X58737500Y-61118750D01*
X58737500Y-61118750D02*
X46119250Y-61118750D01*
X68445572Y-73635678D02*
X68445572Y-70826822D01*
X65087500Y-76993750D02*
X68445572Y-73635678D01*
%TO.N,Row 1*%
X64388072Y-60325000D02*
X47865500Y-60325000D01*
X68445572Y-87382500D02*
X71437500Y-84390572D01*
X32543750Y-96043750D02*
X45243750Y-96043750D01*
X64293750Y-96043750D02*
X68445572Y-91891928D01*
X68445572Y-91891928D02*
X68445572Y-87382500D01*
X71437500Y-67374428D02*
X64388072Y-60325000D01*
X45243750Y-96043750D02*
X64293750Y-96043750D01*
X71437500Y-84390572D02*
X71437500Y-67374428D01*
X47865500Y-60325000D02*
X44373000Y-56832500D01*
%TO.N,Row 2*%
X46831250Y-115093750D02*
X65881250Y-115093750D01*
X72231250Y-109241517D02*
X72231250Y-65087500D01*
X32543750Y-115093750D02*
X46831250Y-115093750D01*
X66379017Y-115093750D02*
X72231250Y-109241517D01*
X49611750Y-59531250D02*
X46913000Y-56832500D01*
X66675000Y-59531250D02*
X49611750Y-59531250D01*
X72231250Y-65087500D02*
X66675000Y-59531250D01*
X65881250Y-115093750D02*
X66379017Y-115093750D01*
%TO.N,Net-(J1-Pin_1)*%
X18973000Y-54566750D02*
X18973000Y-56832500D01*
X16793750Y-52387500D02*
X18973000Y-54566750D01*
X16793750Y-38262500D02*
X16793750Y-52387500D01*
X20425000Y-34631250D02*
X16793750Y-38262500D01*
%TO.N,Net-(J1-Pin_2)*%
X20425000Y-33631250D02*
X21026040Y-33631250D01*
X17462500Y-51593750D02*
X21513000Y-55644250D01*
X21431250Y-35718750D02*
X17462500Y-39687500D01*
X21431250Y-34036460D02*
X21431250Y-35718750D01*
X21026040Y-33631250D02*
X21431250Y-34036460D01*
X21513000Y-55644250D02*
X21513000Y-56832500D01*
X17462500Y-39687500D02*
X17462500Y-51593750D01*
%TO.N,GND*%
X41623750Y-17975000D02*
X41623750Y-21481750D01*
X24053000Y-56832500D02*
X26593000Y-56832500D01*
X41623750Y-21481750D02*
X21513000Y-41592500D01*
%TO.N,Net-(Brd1-SDA)*%
X49243750Y-26956250D02*
X47625000Y-28575000D01*
X49243750Y-17975000D02*
X49243750Y-26956250D01*
%TO.N,Net-(Brd1-SCL)*%
X46703750Y-31622500D02*
X47625000Y-32543750D01*
X46703750Y-17975000D02*
X46703750Y-31622500D01*
%TO.N,+5V*%
X24053000Y-39688896D02*
X24053000Y-41592500D01*
X44163750Y-19578146D02*
X24053000Y-39688896D01*
X44163750Y-17975000D02*
X44163750Y-19578146D01*
%TD*%
M02*
