%TF.GenerationSoftware,KiCad,Pcbnew,7.0.10*%
%TF.CreationDate,2024-04-28T13:40:23+05:00*%
%TF.ProjectId,custom_keyboard,63757374-6f6d-45f6-9b65-79626f617264,rev?*%
%TF.SameCoordinates,Original*%
%TF.FileFunction,Legend,Bot*%
%TF.FilePolarity,Positive*%
%FSLAX46Y46*%
G04 Gerber Fmt 4.6, Leading zero omitted, Abs format (unit mm)*
G04 Created by KiCad (PCBNEW 7.0.10) date 2024-04-28 13:40:23*
%MOMM*%
%LPD*%
G01*
G04 APERTURE LIST*
%ADD10C,0.150000*%
%ADD11C,0.381000*%
%ADD12C,0.120000*%
%ADD13R,1.752600X1.752600*%
%ADD14C,1.752600*%
G04 APERTURE END LIST*
D10*
X21113390Y-43141976D02*
X21075295Y-43065786D01*
X21075295Y-43065786D02*
X21075295Y-42951500D01*
X21075295Y-42951500D02*
X21113390Y-42837214D01*
X21113390Y-42837214D02*
X21189580Y-42761024D01*
X21189580Y-42761024D02*
X21265771Y-42722929D01*
X21265771Y-42722929D02*
X21418152Y-42684833D01*
X21418152Y-42684833D02*
X21532438Y-42684833D01*
X21532438Y-42684833D02*
X21684819Y-42722929D01*
X21684819Y-42722929D02*
X21761009Y-42761024D01*
X21761009Y-42761024D02*
X21837200Y-42837214D01*
X21837200Y-42837214D02*
X21875295Y-42951500D01*
X21875295Y-42951500D02*
X21875295Y-43027691D01*
X21875295Y-43027691D02*
X21837200Y-43141976D01*
X21837200Y-43141976D02*
X21799104Y-43180072D01*
X21799104Y-43180072D02*
X21532438Y-43180072D01*
X21532438Y-43180072D02*
X21532438Y-43027691D01*
X21875295Y-43522929D02*
X21075295Y-43522929D01*
X21075295Y-43522929D02*
X21875295Y-43980072D01*
X21875295Y-43980072D02*
X21075295Y-43980072D01*
X21875295Y-44361024D02*
X21075295Y-44361024D01*
X21075295Y-44361024D02*
X21075295Y-44551500D01*
X21075295Y-44551500D02*
X21113390Y-44665786D01*
X21113390Y-44665786D02*
X21189580Y-44741976D01*
X21189580Y-44741976D02*
X21265771Y-44780071D01*
X21265771Y-44780071D02*
X21418152Y-44818167D01*
X21418152Y-44818167D02*
X21532438Y-44818167D01*
X21532438Y-44818167D02*
X21684819Y-44780071D01*
X21684819Y-44780071D02*
X21761009Y-44741976D01*
X21761009Y-44741976D02*
X21837200Y-44665786D01*
X21837200Y-44665786D02*
X21875295Y-44551500D01*
X21875295Y-44551500D02*
X21875295Y-44361024D01*
X26155295Y-42684833D02*
X26955295Y-42951500D01*
X26955295Y-42951500D02*
X26155295Y-43218166D01*
X26879104Y-43941976D02*
X26917200Y-43903880D01*
X26917200Y-43903880D02*
X26955295Y-43789595D01*
X26955295Y-43789595D02*
X26955295Y-43713404D01*
X26955295Y-43713404D02*
X26917200Y-43599118D01*
X26917200Y-43599118D02*
X26841009Y-43522928D01*
X26841009Y-43522928D02*
X26764819Y-43484833D01*
X26764819Y-43484833D02*
X26612438Y-43446737D01*
X26612438Y-43446737D02*
X26498152Y-43446737D01*
X26498152Y-43446737D02*
X26345771Y-43484833D01*
X26345771Y-43484833D02*
X26269580Y-43522928D01*
X26269580Y-43522928D02*
X26193390Y-43599118D01*
X26193390Y-43599118D02*
X26155295Y-43713404D01*
X26155295Y-43713404D02*
X26155295Y-43789595D01*
X26155295Y-43789595D02*
X26193390Y-43903880D01*
X26193390Y-43903880D02*
X26231485Y-43941976D01*
X26879104Y-44741976D02*
X26917200Y-44703880D01*
X26917200Y-44703880D02*
X26955295Y-44589595D01*
X26955295Y-44589595D02*
X26955295Y-44513404D01*
X26955295Y-44513404D02*
X26917200Y-44399118D01*
X26917200Y-44399118D02*
X26841009Y-44322928D01*
X26841009Y-44322928D02*
X26764819Y-44284833D01*
X26764819Y-44284833D02*
X26612438Y-44246737D01*
X26612438Y-44246737D02*
X26498152Y-44246737D01*
X26498152Y-44246737D02*
X26345771Y-44284833D01*
X26345771Y-44284833D02*
X26269580Y-44322928D01*
X26269580Y-44322928D02*
X26193390Y-44399118D01*
X26193390Y-44399118D02*
X26155295Y-44513404D01*
X26155295Y-44513404D02*
X26155295Y-44589595D01*
X26155295Y-44589595D02*
X26193390Y-44703880D01*
X26193390Y-44703880D02*
X26231485Y-44741976D01*
X29076247Y-43484833D02*
X29076247Y-43218167D01*
X29495295Y-43218167D02*
X28695295Y-43218167D01*
X28695295Y-43218167D02*
X28695295Y-43599119D01*
X28961961Y-44246738D02*
X29495295Y-44246738D01*
X28657200Y-44056262D02*
X29228628Y-43865785D01*
X29228628Y-43865785D02*
X29228628Y-44361024D01*
X44316247Y-54349690D02*
X44354342Y-54463976D01*
X44354342Y-54463976D02*
X44392438Y-54502071D01*
X44392438Y-54502071D02*
X44468628Y-54540167D01*
X44468628Y-54540167D02*
X44582914Y-54540167D01*
X44582914Y-54540167D02*
X44659104Y-54502071D01*
X44659104Y-54502071D02*
X44697200Y-54463976D01*
X44697200Y-54463976D02*
X44735295Y-54387786D01*
X44735295Y-54387786D02*
X44735295Y-54083024D01*
X44735295Y-54083024D02*
X43935295Y-54083024D01*
X43935295Y-54083024D02*
X43935295Y-54349690D01*
X43935295Y-54349690D02*
X43973390Y-54425881D01*
X43973390Y-54425881D02*
X44011485Y-54463976D01*
X44011485Y-54463976D02*
X44087676Y-54502071D01*
X44087676Y-54502071D02*
X44163866Y-54502071D01*
X44163866Y-54502071D02*
X44240057Y-54463976D01*
X44240057Y-54463976D02*
X44278152Y-54425881D01*
X44278152Y-54425881D02*
X44316247Y-54349690D01*
X44316247Y-54349690D02*
X44316247Y-54083024D01*
X44201961Y-55225881D02*
X44735295Y-55225881D01*
X43897200Y-55035405D02*
X44468628Y-54844928D01*
X44468628Y-54844928D02*
X44468628Y-55340167D01*
X46856247Y-54349690D02*
X46894342Y-54463976D01*
X46894342Y-54463976D02*
X46932438Y-54502071D01*
X46932438Y-54502071D02*
X47008628Y-54540167D01*
X47008628Y-54540167D02*
X47122914Y-54540167D01*
X47122914Y-54540167D02*
X47199104Y-54502071D01*
X47199104Y-54502071D02*
X47237200Y-54463976D01*
X47237200Y-54463976D02*
X47275295Y-54387786D01*
X47275295Y-54387786D02*
X47275295Y-54083024D01*
X47275295Y-54083024D02*
X46475295Y-54083024D01*
X46475295Y-54083024D02*
X46475295Y-54349690D01*
X46475295Y-54349690D02*
X46513390Y-54425881D01*
X46513390Y-54425881D02*
X46551485Y-54463976D01*
X46551485Y-54463976D02*
X46627676Y-54502071D01*
X46627676Y-54502071D02*
X46703866Y-54502071D01*
X46703866Y-54502071D02*
X46780057Y-54463976D01*
X46780057Y-54463976D02*
X46818152Y-54425881D01*
X46818152Y-54425881D02*
X46856247Y-54349690D01*
X46856247Y-54349690D02*
X46856247Y-54083024D01*
X46475295Y-55263976D02*
X46475295Y-54883024D01*
X46475295Y-54883024D02*
X46856247Y-54844928D01*
X46856247Y-54844928D02*
X46818152Y-54883024D01*
X46818152Y-54883024D02*
X46780057Y-54959214D01*
X46780057Y-54959214D02*
X46780057Y-55149690D01*
X46780057Y-55149690D02*
X46818152Y-55225881D01*
X46818152Y-55225881D02*
X46856247Y-55263976D01*
X46856247Y-55263976D02*
X46932438Y-55302071D01*
X46932438Y-55302071D02*
X47122914Y-55302071D01*
X47122914Y-55302071D02*
X47199104Y-55263976D01*
X47199104Y-55263976D02*
X47237200Y-55225881D01*
X47237200Y-55225881D02*
X47275295Y-55149690D01*
X47275295Y-55149690D02*
X47275295Y-54959214D01*
X47275295Y-54959214D02*
X47237200Y-54883024D01*
X47237200Y-54883024D02*
X47199104Y-54844928D01*
X26193390Y-54063976D02*
X26155295Y-53987786D01*
X26155295Y-53987786D02*
X26155295Y-53873500D01*
X26155295Y-53873500D02*
X26193390Y-53759214D01*
X26193390Y-53759214D02*
X26269580Y-53683024D01*
X26269580Y-53683024D02*
X26345771Y-53644929D01*
X26345771Y-53644929D02*
X26498152Y-53606833D01*
X26498152Y-53606833D02*
X26612438Y-53606833D01*
X26612438Y-53606833D02*
X26764819Y-53644929D01*
X26764819Y-53644929D02*
X26841009Y-53683024D01*
X26841009Y-53683024D02*
X26917200Y-53759214D01*
X26917200Y-53759214D02*
X26955295Y-53873500D01*
X26955295Y-53873500D02*
X26955295Y-53949691D01*
X26955295Y-53949691D02*
X26917200Y-54063976D01*
X26917200Y-54063976D02*
X26879104Y-54102072D01*
X26879104Y-54102072D02*
X26612438Y-54102072D01*
X26612438Y-54102072D02*
X26612438Y-53949691D01*
X26955295Y-54444929D02*
X26155295Y-54444929D01*
X26155295Y-54444929D02*
X26955295Y-54902072D01*
X26955295Y-54902072D02*
X26155295Y-54902072D01*
X26955295Y-55283024D02*
X26155295Y-55283024D01*
X26155295Y-55283024D02*
X26155295Y-55473500D01*
X26155295Y-55473500D02*
X26193390Y-55587786D01*
X26193390Y-55587786D02*
X26269580Y-55663976D01*
X26269580Y-55663976D02*
X26345771Y-55702071D01*
X26345771Y-55702071D02*
X26498152Y-55740167D01*
X26498152Y-55740167D02*
X26612438Y-55740167D01*
X26612438Y-55740167D02*
X26764819Y-55702071D01*
X26764819Y-55702071D02*
X26841009Y-55663976D01*
X26841009Y-55663976D02*
X26917200Y-55587786D01*
X26917200Y-55587786D02*
X26955295Y-55473500D01*
X26955295Y-55473500D02*
X26955295Y-55283024D01*
X39655295Y-54083024D02*
X38855295Y-54083024D01*
X38855295Y-54083024D02*
X38855295Y-54273500D01*
X38855295Y-54273500D02*
X38893390Y-54387786D01*
X38893390Y-54387786D02*
X38969580Y-54463976D01*
X38969580Y-54463976D02*
X39045771Y-54502071D01*
X39045771Y-54502071D02*
X39198152Y-54540167D01*
X39198152Y-54540167D02*
X39312438Y-54540167D01*
X39312438Y-54540167D02*
X39464819Y-54502071D01*
X39464819Y-54502071D02*
X39541009Y-54463976D01*
X39541009Y-54463976D02*
X39617200Y-54387786D01*
X39617200Y-54387786D02*
X39655295Y-54273500D01*
X39655295Y-54273500D02*
X39655295Y-54083024D01*
X38855295Y-54806833D02*
X38855295Y-55340167D01*
X38855295Y-55340167D02*
X39655295Y-54997309D01*
X39236247Y-43427690D02*
X39274342Y-43541976D01*
X39274342Y-43541976D02*
X39312438Y-43580071D01*
X39312438Y-43580071D02*
X39388628Y-43618167D01*
X39388628Y-43618167D02*
X39502914Y-43618167D01*
X39502914Y-43618167D02*
X39579104Y-43580071D01*
X39579104Y-43580071D02*
X39617200Y-43541976D01*
X39617200Y-43541976D02*
X39655295Y-43465786D01*
X39655295Y-43465786D02*
X39655295Y-43161024D01*
X39655295Y-43161024D02*
X38855295Y-43161024D01*
X38855295Y-43161024D02*
X38855295Y-43427690D01*
X38855295Y-43427690D02*
X38893390Y-43503881D01*
X38893390Y-43503881D02*
X38931485Y-43541976D01*
X38931485Y-43541976D02*
X39007676Y-43580071D01*
X39007676Y-43580071D02*
X39083866Y-43580071D01*
X39083866Y-43580071D02*
X39160057Y-43541976D01*
X39160057Y-43541976D02*
X39198152Y-43503881D01*
X39198152Y-43503881D02*
X39236247Y-43427690D01*
X39236247Y-43427690D02*
X39236247Y-43161024D01*
X39655295Y-44380071D02*
X39655295Y-43922928D01*
X39655295Y-44151500D02*
X38855295Y-44151500D01*
X38855295Y-44151500D02*
X38969580Y-44075309D01*
X38969580Y-44075309D02*
X39045771Y-43999119D01*
X39045771Y-43999119D02*
X39083866Y-43922928D01*
X34156247Y-43484833D02*
X34156247Y-43218167D01*
X34575295Y-43218167D02*
X33775295Y-43218167D01*
X33775295Y-43218167D02*
X33775295Y-43599119D01*
X33775295Y-44246738D02*
X33775295Y-44094357D01*
X33775295Y-44094357D02*
X33813390Y-44018166D01*
X33813390Y-44018166D02*
X33851485Y-43980071D01*
X33851485Y-43980071D02*
X33965771Y-43903881D01*
X33965771Y-43903881D02*
X34118152Y-43865785D01*
X34118152Y-43865785D02*
X34422914Y-43865785D01*
X34422914Y-43865785D02*
X34499104Y-43903881D01*
X34499104Y-43903881D02*
X34537200Y-43941976D01*
X34537200Y-43941976D02*
X34575295Y-44018166D01*
X34575295Y-44018166D02*
X34575295Y-44170547D01*
X34575295Y-44170547D02*
X34537200Y-44246738D01*
X34537200Y-44246738D02*
X34499104Y-44284833D01*
X34499104Y-44284833D02*
X34422914Y-44322928D01*
X34422914Y-44322928D02*
X34232438Y-44322928D01*
X34232438Y-44322928D02*
X34156247Y-44284833D01*
X34156247Y-44284833D02*
X34118152Y-44246738D01*
X34118152Y-44246738D02*
X34080057Y-44170547D01*
X34080057Y-44170547D02*
X34080057Y-44018166D01*
X34080057Y-44018166D02*
X34118152Y-43941976D01*
X34118152Y-43941976D02*
X34156247Y-43903881D01*
X34156247Y-43903881D02*
X34232438Y-43865785D01*
X44316247Y-43427690D02*
X44354342Y-43541976D01*
X44354342Y-43541976D02*
X44392438Y-43580071D01*
X44392438Y-43580071D02*
X44468628Y-43618167D01*
X44468628Y-43618167D02*
X44582914Y-43618167D01*
X44582914Y-43618167D02*
X44659104Y-43580071D01*
X44659104Y-43580071D02*
X44697200Y-43541976D01*
X44697200Y-43541976D02*
X44735295Y-43465786D01*
X44735295Y-43465786D02*
X44735295Y-43161024D01*
X44735295Y-43161024D02*
X43935295Y-43161024D01*
X43935295Y-43161024D02*
X43935295Y-43427690D01*
X43935295Y-43427690D02*
X43973390Y-43503881D01*
X43973390Y-43503881D02*
X44011485Y-43541976D01*
X44011485Y-43541976D02*
X44087676Y-43580071D01*
X44087676Y-43580071D02*
X44163866Y-43580071D01*
X44163866Y-43580071D02*
X44240057Y-43541976D01*
X44240057Y-43541976D02*
X44278152Y-43503881D01*
X44278152Y-43503881D02*
X44316247Y-43427690D01*
X44316247Y-43427690D02*
X44316247Y-43161024D01*
X44011485Y-43922928D02*
X43973390Y-43961024D01*
X43973390Y-43961024D02*
X43935295Y-44037214D01*
X43935295Y-44037214D02*
X43935295Y-44227690D01*
X43935295Y-44227690D02*
X43973390Y-44303881D01*
X43973390Y-44303881D02*
X44011485Y-44341976D01*
X44011485Y-44341976D02*
X44087676Y-44380071D01*
X44087676Y-44380071D02*
X44163866Y-44380071D01*
X44163866Y-44380071D02*
X44278152Y-44341976D01*
X44278152Y-44341976D02*
X44735295Y-43884833D01*
X44735295Y-43884833D02*
X44735295Y-44380071D01*
X46856247Y-43427690D02*
X46894342Y-43541976D01*
X46894342Y-43541976D02*
X46932438Y-43580071D01*
X46932438Y-43580071D02*
X47008628Y-43618167D01*
X47008628Y-43618167D02*
X47122914Y-43618167D01*
X47122914Y-43618167D02*
X47199104Y-43580071D01*
X47199104Y-43580071D02*
X47237200Y-43541976D01*
X47237200Y-43541976D02*
X47275295Y-43465786D01*
X47275295Y-43465786D02*
X47275295Y-43161024D01*
X47275295Y-43161024D02*
X46475295Y-43161024D01*
X46475295Y-43161024D02*
X46475295Y-43427690D01*
X46475295Y-43427690D02*
X46513390Y-43503881D01*
X46513390Y-43503881D02*
X46551485Y-43541976D01*
X46551485Y-43541976D02*
X46627676Y-43580071D01*
X46627676Y-43580071D02*
X46703866Y-43580071D01*
X46703866Y-43580071D02*
X46780057Y-43541976D01*
X46780057Y-43541976D02*
X46818152Y-43503881D01*
X46818152Y-43503881D02*
X46856247Y-43427690D01*
X46856247Y-43427690D02*
X46856247Y-43161024D01*
X46475295Y-44303881D02*
X46475295Y-44151500D01*
X46475295Y-44151500D02*
X46513390Y-44075309D01*
X46513390Y-44075309D02*
X46551485Y-44037214D01*
X46551485Y-44037214D02*
X46665771Y-43961024D01*
X46665771Y-43961024D02*
X46818152Y-43922928D01*
X46818152Y-43922928D02*
X47122914Y-43922928D01*
X47122914Y-43922928D02*
X47199104Y-43961024D01*
X47199104Y-43961024D02*
X47237200Y-43999119D01*
X47237200Y-43999119D02*
X47275295Y-44075309D01*
X47275295Y-44075309D02*
X47275295Y-44227690D01*
X47275295Y-44227690D02*
X47237200Y-44303881D01*
X47237200Y-44303881D02*
X47199104Y-44341976D01*
X47199104Y-44341976D02*
X47122914Y-44380071D01*
X47122914Y-44380071D02*
X46932438Y-44380071D01*
X46932438Y-44380071D02*
X46856247Y-44341976D01*
X46856247Y-44341976D02*
X46818152Y-44303881D01*
X46818152Y-44303881D02*
X46780057Y-44227690D01*
X46780057Y-44227690D02*
X46780057Y-44075309D01*
X46780057Y-44075309D02*
X46818152Y-43999119D01*
X46818152Y-43999119D02*
X46856247Y-43961024D01*
X46856247Y-43961024D02*
X46932438Y-43922928D01*
X23653390Y-54063976D02*
X23615295Y-53987786D01*
X23615295Y-53987786D02*
X23615295Y-53873500D01*
X23615295Y-53873500D02*
X23653390Y-53759214D01*
X23653390Y-53759214D02*
X23729580Y-53683024D01*
X23729580Y-53683024D02*
X23805771Y-53644929D01*
X23805771Y-53644929D02*
X23958152Y-53606833D01*
X23958152Y-53606833D02*
X24072438Y-53606833D01*
X24072438Y-53606833D02*
X24224819Y-53644929D01*
X24224819Y-53644929D02*
X24301009Y-53683024D01*
X24301009Y-53683024D02*
X24377200Y-53759214D01*
X24377200Y-53759214D02*
X24415295Y-53873500D01*
X24415295Y-53873500D02*
X24415295Y-53949691D01*
X24415295Y-53949691D02*
X24377200Y-54063976D01*
X24377200Y-54063976D02*
X24339104Y-54102072D01*
X24339104Y-54102072D02*
X24072438Y-54102072D01*
X24072438Y-54102072D02*
X24072438Y-53949691D01*
X24415295Y-54444929D02*
X23615295Y-54444929D01*
X23615295Y-54444929D02*
X24415295Y-54902072D01*
X24415295Y-54902072D02*
X23615295Y-54902072D01*
X24415295Y-55283024D02*
X23615295Y-55283024D01*
X23615295Y-55283024D02*
X23615295Y-55473500D01*
X23615295Y-55473500D02*
X23653390Y-55587786D01*
X23653390Y-55587786D02*
X23729580Y-55663976D01*
X23729580Y-55663976D02*
X23805771Y-55702071D01*
X23805771Y-55702071D02*
X23958152Y-55740167D01*
X23958152Y-55740167D02*
X24072438Y-55740167D01*
X24072438Y-55740167D02*
X24224819Y-55702071D01*
X24224819Y-55702071D02*
X24301009Y-55663976D01*
X24301009Y-55663976D02*
X24377200Y-55587786D01*
X24377200Y-55587786D02*
X24415295Y-55473500D01*
X24415295Y-55473500D02*
X24415295Y-55283024D01*
X21875295Y-54083024D02*
X21075295Y-54083024D01*
X21075295Y-54083024D02*
X21075295Y-54273500D01*
X21075295Y-54273500D02*
X21113390Y-54387786D01*
X21113390Y-54387786D02*
X21189580Y-54463976D01*
X21189580Y-54463976D02*
X21265771Y-54502071D01*
X21265771Y-54502071D02*
X21418152Y-54540167D01*
X21418152Y-54540167D02*
X21532438Y-54540167D01*
X21532438Y-54540167D02*
X21684819Y-54502071D01*
X21684819Y-54502071D02*
X21761009Y-54463976D01*
X21761009Y-54463976D02*
X21837200Y-54387786D01*
X21837200Y-54387786D02*
X21875295Y-54273500D01*
X21875295Y-54273500D02*
X21875295Y-54083024D01*
X21151485Y-54844928D02*
X21113390Y-54883024D01*
X21113390Y-54883024D02*
X21075295Y-54959214D01*
X21075295Y-54959214D02*
X21075295Y-55149690D01*
X21075295Y-55149690D02*
X21113390Y-55225881D01*
X21113390Y-55225881D02*
X21151485Y-55263976D01*
X21151485Y-55263976D02*
X21227676Y-55302071D01*
X21227676Y-55302071D02*
X21303866Y-55302071D01*
X21303866Y-55302071D02*
X21418152Y-55263976D01*
X21418152Y-55263976D02*
X21875295Y-54806833D01*
X21875295Y-54806833D02*
X21875295Y-55302071D01*
X36696247Y-43484833D02*
X36696247Y-43218167D01*
X37115295Y-43218167D02*
X36315295Y-43218167D01*
X36315295Y-43218167D02*
X36315295Y-43599119D01*
X36315295Y-43827690D02*
X36315295Y-44361024D01*
X36315295Y-44361024D02*
X37115295Y-44018166D01*
X29495295Y-54083024D02*
X28695295Y-54083024D01*
X28695295Y-54083024D02*
X28695295Y-54273500D01*
X28695295Y-54273500D02*
X28733390Y-54387786D01*
X28733390Y-54387786D02*
X28809580Y-54463976D01*
X28809580Y-54463976D02*
X28885771Y-54502071D01*
X28885771Y-54502071D02*
X29038152Y-54540167D01*
X29038152Y-54540167D02*
X29152438Y-54540167D01*
X29152438Y-54540167D02*
X29304819Y-54502071D01*
X29304819Y-54502071D02*
X29381009Y-54463976D01*
X29381009Y-54463976D02*
X29457200Y-54387786D01*
X29457200Y-54387786D02*
X29495295Y-54273500D01*
X29495295Y-54273500D02*
X29495295Y-54083024D01*
X29495295Y-55302071D02*
X29495295Y-54844928D01*
X29495295Y-55073500D02*
X28695295Y-55073500D01*
X28695295Y-55073500D02*
X28809580Y-54997309D01*
X28809580Y-54997309D02*
X28885771Y-54921119D01*
X28885771Y-54921119D02*
X28923866Y-54844928D01*
X31616247Y-43484833D02*
X31616247Y-43218167D01*
X32035295Y-43218167D02*
X31235295Y-43218167D01*
X31235295Y-43218167D02*
X31235295Y-43599119D01*
X31235295Y-44284833D02*
X31235295Y-43903881D01*
X31235295Y-43903881D02*
X31616247Y-43865785D01*
X31616247Y-43865785D02*
X31578152Y-43903881D01*
X31578152Y-43903881D02*
X31540057Y-43980071D01*
X31540057Y-43980071D02*
X31540057Y-44170547D01*
X31540057Y-44170547D02*
X31578152Y-44246738D01*
X31578152Y-44246738D02*
X31616247Y-44284833D01*
X31616247Y-44284833D02*
X31692438Y-44322928D01*
X31692438Y-44322928D02*
X31882914Y-44322928D01*
X31882914Y-44322928D02*
X31959104Y-44284833D01*
X31959104Y-44284833D02*
X31997200Y-44246738D01*
X31997200Y-44246738D02*
X32035295Y-44170547D01*
X32035295Y-44170547D02*
X32035295Y-43980071D01*
X32035295Y-43980071D02*
X31997200Y-43903881D01*
X31997200Y-43903881D02*
X31959104Y-43865785D01*
X32035295Y-54083024D02*
X31235295Y-54083024D01*
X31235295Y-54083024D02*
X31235295Y-54273500D01*
X31235295Y-54273500D02*
X31273390Y-54387786D01*
X31273390Y-54387786D02*
X31349580Y-54463976D01*
X31349580Y-54463976D02*
X31425771Y-54502071D01*
X31425771Y-54502071D02*
X31578152Y-54540167D01*
X31578152Y-54540167D02*
X31692438Y-54540167D01*
X31692438Y-54540167D02*
X31844819Y-54502071D01*
X31844819Y-54502071D02*
X31921009Y-54463976D01*
X31921009Y-54463976D02*
X31997200Y-54387786D01*
X31997200Y-54387786D02*
X32035295Y-54273500D01*
X32035295Y-54273500D02*
X32035295Y-54083024D01*
X31235295Y-55035405D02*
X31235295Y-55111595D01*
X31235295Y-55111595D02*
X31273390Y-55187786D01*
X31273390Y-55187786D02*
X31311485Y-55225881D01*
X31311485Y-55225881D02*
X31387676Y-55263976D01*
X31387676Y-55263976D02*
X31540057Y-55302071D01*
X31540057Y-55302071D02*
X31730533Y-55302071D01*
X31730533Y-55302071D02*
X31882914Y-55263976D01*
X31882914Y-55263976D02*
X31959104Y-55225881D01*
X31959104Y-55225881D02*
X31997200Y-55187786D01*
X31997200Y-55187786D02*
X32035295Y-55111595D01*
X32035295Y-55111595D02*
X32035295Y-55035405D01*
X32035295Y-55035405D02*
X31997200Y-54959214D01*
X31997200Y-54959214D02*
X31959104Y-54921119D01*
X31959104Y-54921119D02*
X31882914Y-54883024D01*
X31882914Y-54883024D02*
X31730533Y-54844928D01*
X31730533Y-54844928D02*
X31540057Y-54844928D01*
X31540057Y-54844928D02*
X31387676Y-54883024D01*
X31387676Y-54883024D02*
X31311485Y-54921119D01*
X31311485Y-54921119D02*
X31273390Y-54959214D01*
X31273390Y-54959214D02*
X31235295Y-55035405D01*
X41776247Y-54121119D02*
X41776247Y-54387785D01*
X42195295Y-54502071D02*
X42195295Y-54121119D01*
X42195295Y-54121119D02*
X41395295Y-54121119D01*
X41395295Y-54121119D02*
X41395295Y-54502071D01*
X41395295Y-55187786D02*
X41395295Y-55035405D01*
X41395295Y-55035405D02*
X41433390Y-54959214D01*
X41433390Y-54959214D02*
X41471485Y-54921119D01*
X41471485Y-54921119D02*
X41585771Y-54844929D01*
X41585771Y-54844929D02*
X41738152Y-54806833D01*
X41738152Y-54806833D02*
X42042914Y-54806833D01*
X42042914Y-54806833D02*
X42119104Y-54844929D01*
X42119104Y-54844929D02*
X42157200Y-54883024D01*
X42157200Y-54883024D02*
X42195295Y-54959214D01*
X42195295Y-54959214D02*
X42195295Y-55111595D01*
X42195295Y-55111595D02*
X42157200Y-55187786D01*
X42157200Y-55187786D02*
X42119104Y-55225881D01*
X42119104Y-55225881D02*
X42042914Y-55263976D01*
X42042914Y-55263976D02*
X41852438Y-55263976D01*
X41852438Y-55263976D02*
X41776247Y-55225881D01*
X41776247Y-55225881D02*
X41738152Y-55187786D01*
X41738152Y-55187786D02*
X41700057Y-55111595D01*
X41700057Y-55111595D02*
X41700057Y-54959214D01*
X41700057Y-54959214D02*
X41738152Y-54883024D01*
X41738152Y-54883024D02*
X41776247Y-54844929D01*
X41776247Y-54844929D02*
X41852438Y-54806833D01*
X34575295Y-54083024D02*
X33775295Y-54083024D01*
X33775295Y-54083024D02*
X33775295Y-54273500D01*
X33775295Y-54273500D02*
X33813390Y-54387786D01*
X33813390Y-54387786D02*
X33889580Y-54463976D01*
X33889580Y-54463976D02*
X33965771Y-54502071D01*
X33965771Y-54502071D02*
X34118152Y-54540167D01*
X34118152Y-54540167D02*
X34232438Y-54540167D01*
X34232438Y-54540167D02*
X34384819Y-54502071D01*
X34384819Y-54502071D02*
X34461009Y-54463976D01*
X34461009Y-54463976D02*
X34537200Y-54387786D01*
X34537200Y-54387786D02*
X34575295Y-54273500D01*
X34575295Y-54273500D02*
X34575295Y-54083024D01*
X34041961Y-55225881D02*
X34575295Y-55225881D01*
X33737200Y-55035405D02*
X34308628Y-54844928D01*
X34308628Y-54844928D02*
X34308628Y-55340167D01*
X41776247Y-43427690D02*
X41814342Y-43541976D01*
X41814342Y-43541976D02*
X41852438Y-43580071D01*
X41852438Y-43580071D02*
X41928628Y-43618167D01*
X41928628Y-43618167D02*
X42042914Y-43618167D01*
X42042914Y-43618167D02*
X42119104Y-43580071D01*
X42119104Y-43580071D02*
X42157200Y-43541976D01*
X42157200Y-43541976D02*
X42195295Y-43465786D01*
X42195295Y-43465786D02*
X42195295Y-43161024D01*
X42195295Y-43161024D02*
X41395295Y-43161024D01*
X41395295Y-43161024D02*
X41395295Y-43427690D01*
X41395295Y-43427690D02*
X41433390Y-43503881D01*
X41433390Y-43503881D02*
X41471485Y-43541976D01*
X41471485Y-43541976D02*
X41547676Y-43580071D01*
X41547676Y-43580071D02*
X41623866Y-43580071D01*
X41623866Y-43580071D02*
X41700057Y-43541976D01*
X41700057Y-43541976D02*
X41738152Y-43503881D01*
X41738152Y-43503881D02*
X41776247Y-43427690D01*
X41776247Y-43427690D02*
X41776247Y-43161024D01*
X41395295Y-43884833D02*
X41395295Y-44380071D01*
X41395295Y-44380071D02*
X41700057Y-44113405D01*
X41700057Y-44113405D02*
X41700057Y-44227690D01*
X41700057Y-44227690D02*
X41738152Y-44303881D01*
X41738152Y-44303881D02*
X41776247Y-44341976D01*
X41776247Y-44341976D02*
X41852438Y-44380071D01*
X41852438Y-44380071D02*
X42042914Y-44380071D01*
X42042914Y-44380071D02*
X42119104Y-44341976D01*
X42119104Y-44341976D02*
X42157200Y-44303881D01*
X42157200Y-44303881D02*
X42195295Y-44227690D01*
X42195295Y-44227690D02*
X42195295Y-43999119D01*
X42195295Y-43999119D02*
X42157200Y-43922928D01*
X42157200Y-43922928D02*
X42119104Y-43884833D01*
X37039104Y-54540167D02*
X37077200Y-54502071D01*
X37077200Y-54502071D02*
X37115295Y-54387786D01*
X37115295Y-54387786D02*
X37115295Y-54311595D01*
X37115295Y-54311595D02*
X37077200Y-54197309D01*
X37077200Y-54197309D02*
X37001009Y-54121119D01*
X37001009Y-54121119D02*
X36924819Y-54083024D01*
X36924819Y-54083024D02*
X36772438Y-54044928D01*
X36772438Y-54044928D02*
X36658152Y-54044928D01*
X36658152Y-54044928D02*
X36505771Y-54083024D01*
X36505771Y-54083024D02*
X36429580Y-54121119D01*
X36429580Y-54121119D02*
X36353390Y-54197309D01*
X36353390Y-54197309D02*
X36315295Y-54311595D01*
X36315295Y-54311595D02*
X36315295Y-54387786D01*
X36315295Y-54387786D02*
X36353390Y-54502071D01*
X36353390Y-54502071D02*
X36391485Y-54540167D01*
X36315295Y-55225881D02*
X36315295Y-55073500D01*
X36315295Y-55073500D02*
X36353390Y-54997309D01*
X36353390Y-54997309D02*
X36391485Y-54959214D01*
X36391485Y-54959214D02*
X36505771Y-54883024D01*
X36505771Y-54883024D02*
X36658152Y-54844928D01*
X36658152Y-54844928D02*
X36962914Y-54844928D01*
X36962914Y-54844928D02*
X37039104Y-54883024D01*
X37039104Y-54883024D02*
X37077200Y-54921119D01*
X37077200Y-54921119D02*
X37115295Y-54997309D01*
X37115295Y-54997309D02*
X37115295Y-55149690D01*
X37115295Y-55149690D02*
X37077200Y-55225881D01*
X37077200Y-55225881D02*
X37039104Y-55263976D01*
X37039104Y-55263976D02*
X36962914Y-55302071D01*
X36962914Y-55302071D02*
X36772438Y-55302071D01*
X36772438Y-55302071D02*
X36696247Y-55263976D01*
X36696247Y-55263976D02*
X36658152Y-55225881D01*
X36658152Y-55225881D02*
X36620057Y-55149690D01*
X36620057Y-55149690D02*
X36620057Y-54997309D01*
X36620057Y-54997309D02*
X36658152Y-54921119D01*
X36658152Y-54921119D02*
X36696247Y-54883024D01*
X36696247Y-54883024D02*
X36772438Y-54844928D01*
X24357200Y-43639166D02*
X24395295Y-43753452D01*
X24395295Y-43753452D02*
X24395295Y-43943928D01*
X24395295Y-43943928D02*
X24357200Y-44020119D01*
X24357200Y-44020119D02*
X24319104Y-44058214D01*
X24319104Y-44058214D02*
X24242914Y-44096309D01*
X24242914Y-44096309D02*
X24166723Y-44096309D01*
X24166723Y-44096309D02*
X24090533Y-44058214D01*
X24090533Y-44058214D02*
X24052438Y-44020119D01*
X24052438Y-44020119D02*
X24014342Y-43943928D01*
X24014342Y-43943928D02*
X23976247Y-43791547D01*
X23976247Y-43791547D02*
X23938152Y-43715357D01*
X23938152Y-43715357D02*
X23900057Y-43677262D01*
X23900057Y-43677262D02*
X23823866Y-43639166D01*
X23823866Y-43639166D02*
X23747676Y-43639166D01*
X23747676Y-43639166D02*
X23671485Y-43677262D01*
X23671485Y-43677262D02*
X23633390Y-43715357D01*
X23633390Y-43715357D02*
X23595295Y-43791547D01*
X23595295Y-43791547D02*
X23595295Y-43982024D01*
X23595295Y-43982024D02*
X23633390Y-44096309D01*
X23595295Y-44324881D02*
X23595295Y-44782024D01*
X24395295Y-44553452D02*
X23595295Y-44553452D01*
X18535295Y-50593895D02*
X18535295Y-51051038D01*
X19335295Y-50822466D02*
X18535295Y-50822466D01*
X18535295Y-51241514D02*
X19335295Y-51774848D01*
X18535295Y-51774848D02*
X19335295Y-51241514D01*
X18535295Y-52231991D02*
X18535295Y-52308181D01*
X18535295Y-52308181D02*
X18573390Y-52384372D01*
X18573390Y-52384372D02*
X18611485Y-52422467D01*
X18611485Y-52422467D02*
X18687676Y-52460562D01*
X18687676Y-52460562D02*
X18840057Y-52498657D01*
X18840057Y-52498657D02*
X19030533Y-52498657D01*
X19030533Y-52498657D02*
X19182914Y-52460562D01*
X19182914Y-52460562D02*
X19259104Y-52422467D01*
X19259104Y-52422467D02*
X19297200Y-52384372D01*
X19297200Y-52384372D02*
X19335295Y-52308181D01*
X19335295Y-52308181D02*
X19335295Y-52231991D01*
X19335295Y-52231991D02*
X19297200Y-52155800D01*
X19297200Y-52155800D02*
X19259104Y-52117705D01*
X19259104Y-52117705D02*
X19182914Y-52079610D01*
X19182914Y-52079610D02*
X19030533Y-52041514D01*
X19030533Y-52041514D02*
X18840057Y-52041514D01*
X18840057Y-52041514D02*
X18687676Y-52079610D01*
X18687676Y-52079610D02*
X18611485Y-52117705D01*
X18611485Y-52117705D02*
X18573390Y-52155800D01*
X18573390Y-52155800D02*
X18535295Y-52231991D01*
X18497200Y-53412943D02*
X19525771Y-52727229D01*
X19335295Y-53679610D02*
X18535295Y-53679610D01*
X18535295Y-53679610D02*
X18535295Y-53870086D01*
X18535295Y-53870086D02*
X18573390Y-53984372D01*
X18573390Y-53984372D02*
X18649580Y-54060562D01*
X18649580Y-54060562D02*
X18725771Y-54098657D01*
X18725771Y-54098657D02*
X18878152Y-54136753D01*
X18878152Y-54136753D02*
X18992438Y-54136753D01*
X18992438Y-54136753D02*
X19144819Y-54098657D01*
X19144819Y-54098657D02*
X19221009Y-54060562D01*
X19221009Y-54060562D02*
X19297200Y-53984372D01*
X19297200Y-53984372D02*
X19335295Y-53870086D01*
X19335295Y-53870086D02*
X19335295Y-53679610D01*
X18535295Y-54403419D02*
X18535295Y-54898657D01*
X18535295Y-54898657D02*
X18840057Y-54631991D01*
X18840057Y-54631991D02*
X18840057Y-54746276D01*
X18840057Y-54746276D02*
X18878152Y-54822467D01*
X18878152Y-54822467D02*
X18916247Y-54860562D01*
X18916247Y-54860562D02*
X18992438Y-54898657D01*
X18992438Y-54898657D02*
X19182914Y-54898657D01*
X19182914Y-54898657D02*
X19259104Y-54860562D01*
X19259104Y-54860562D02*
X19297200Y-54822467D01*
X19297200Y-54822467D02*
X19335295Y-54746276D01*
X19335295Y-54746276D02*
X19335295Y-54517705D01*
X19335295Y-54517705D02*
X19297200Y-54441514D01*
X19297200Y-54441514D02*
X19259104Y-54403419D01*
X19335295Y-43199119D02*
X18954342Y-42932452D01*
X19335295Y-42741976D02*
X18535295Y-42741976D01*
X18535295Y-42741976D02*
X18535295Y-43046738D01*
X18535295Y-43046738D02*
X18573390Y-43122928D01*
X18573390Y-43122928D02*
X18611485Y-43161023D01*
X18611485Y-43161023D02*
X18687676Y-43199119D01*
X18687676Y-43199119D02*
X18801961Y-43199119D01*
X18801961Y-43199119D02*
X18878152Y-43161023D01*
X18878152Y-43161023D02*
X18916247Y-43122928D01*
X18916247Y-43122928D02*
X18954342Y-43046738D01*
X18954342Y-43046738D02*
X18954342Y-42741976D01*
X19106723Y-43503880D02*
X19106723Y-43884833D01*
X19335295Y-43427690D02*
X18535295Y-43694357D01*
X18535295Y-43694357D02*
X19335295Y-43961023D01*
X18535295Y-44151499D02*
X19335295Y-44341975D01*
X19335295Y-44341975D02*
X18763866Y-44494356D01*
X18763866Y-44494356D02*
X19335295Y-44646737D01*
X19335295Y-44646737D02*
X18535295Y-44837214D01*
X32523213Y-70142319D02*
X32523213Y-69142319D01*
X32523213Y-69142319D02*
X32189880Y-69856604D01*
X32189880Y-69856604D02*
X31856547Y-69142319D01*
X31856547Y-69142319D02*
X31856547Y-70142319D01*
X31475594Y-69142319D02*
X30808928Y-70142319D01*
X30808928Y-69142319D02*
X31475594Y-70142319D01*
X29904166Y-70142319D02*
X30475594Y-70142319D01*
X30189880Y-70142319D02*
X30189880Y-69142319D01*
X30189880Y-69142319D02*
X30285118Y-69285176D01*
X30285118Y-69285176D02*
X30380356Y-69380414D01*
X30380356Y-69380414D02*
X30475594Y-69428033D01*
X51573213Y-70142319D02*
X51573213Y-69142319D01*
X51573213Y-69142319D02*
X51239880Y-69856604D01*
X51239880Y-69856604D02*
X50906547Y-69142319D01*
X50906547Y-69142319D02*
X50906547Y-70142319D01*
X50525594Y-69142319D02*
X49858928Y-70142319D01*
X49858928Y-69142319D02*
X50525594Y-70142319D01*
X49525594Y-69237557D02*
X49477975Y-69189938D01*
X49477975Y-69189938D02*
X49382737Y-69142319D01*
X49382737Y-69142319D02*
X49144642Y-69142319D01*
X49144642Y-69142319D02*
X49049404Y-69189938D01*
X49049404Y-69189938D02*
X49001785Y-69237557D01*
X49001785Y-69237557D02*
X48954166Y-69332795D01*
X48954166Y-69332795D02*
X48954166Y-69428033D01*
X48954166Y-69428033D02*
X49001785Y-69570890D01*
X49001785Y-69570890D02*
X49573213Y-70142319D01*
X49573213Y-70142319D02*
X48954166Y-70142319D01*
X70622319Y-71349405D02*
X69622319Y-71349405D01*
X69622319Y-71349405D02*
X69622319Y-71587500D01*
X69622319Y-71587500D02*
X69669938Y-71730357D01*
X69669938Y-71730357D02*
X69765176Y-71825595D01*
X69765176Y-71825595D02*
X69860414Y-71873214D01*
X69860414Y-71873214D02*
X70050890Y-71920833D01*
X70050890Y-71920833D02*
X70193747Y-71920833D01*
X70193747Y-71920833D02*
X70384223Y-71873214D01*
X70384223Y-71873214D02*
X70479461Y-71825595D01*
X70479461Y-71825595D02*
X70574700Y-71730357D01*
X70574700Y-71730357D02*
X70622319Y-71587500D01*
X70622319Y-71587500D02*
X70622319Y-71349405D01*
X69622319Y-72254167D02*
X69622319Y-72873214D01*
X69622319Y-72873214D02*
X70003271Y-72539881D01*
X70003271Y-72539881D02*
X70003271Y-72682738D01*
X70003271Y-72682738D02*
X70050890Y-72777976D01*
X70050890Y-72777976D02*
X70098509Y-72825595D01*
X70098509Y-72825595D02*
X70193747Y-72873214D01*
X70193747Y-72873214D02*
X70431842Y-72873214D01*
X70431842Y-72873214D02*
X70527080Y-72825595D01*
X70527080Y-72825595D02*
X70574700Y-72777976D01*
X70574700Y-72777976D02*
X70622319Y-72682738D01*
X70622319Y-72682738D02*
X70622319Y-72397024D01*
X70622319Y-72397024D02*
X70574700Y-72301786D01*
X70574700Y-72301786D02*
X70527080Y-72254167D01*
X32522319Y-90399405D02*
X31522319Y-90399405D01*
X31522319Y-90399405D02*
X31522319Y-90637500D01*
X31522319Y-90637500D02*
X31569938Y-90780357D01*
X31569938Y-90780357D02*
X31665176Y-90875595D01*
X31665176Y-90875595D02*
X31760414Y-90923214D01*
X31760414Y-90923214D02*
X31950890Y-90970833D01*
X31950890Y-90970833D02*
X32093747Y-90970833D01*
X32093747Y-90970833D02*
X32284223Y-90923214D01*
X32284223Y-90923214D02*
X32379461Y-90875595D01*
X32379461Y-90875595D02*
X32474700Y-90780357D01*
X32474700Y-90780357D02*
X32522319Y-90637500D01*
X32522319Y-90637500D02*
X32522319Y-90399405D01*
X31855652Y-91827976D02*
X32522319Y-91827976D01*
X31474700Y-91589881D02*
X32188985Y-91351786D01*
X32188985Y-91351786D02*
X32188985Y-91970833D01*
X51572319Y-109449405D02*
X50572319Y-109449405D01*
X50572319Y-109449405D02*
X50572319Y-109687500D01*
X50572319Y-109687500D02*
X50619938Y-109830357D01*
X50619938Y-109830357D02*
X50715176Y-109925595D01*
X50715176Y-109925595D02*
X50810414Y-109973214D01*
X50810414Y-109973214D02*
X51000890Y-110020833D01*
X51000890Y-110020833D02*
X51143747Y-110020833D01*
X51143747Y-110020833D02*
X51334223Y-109973214D01*
X51334223Y-109973214D02*
X51429461Y-109925595D01*
X51429461Y-109925595D02*
X51524700Y-109830357D01*
X51524700Y-109830357D02*
X51572319Y-109687500D01*
X51572319Y-109687500D02*
X51572319Y-109449405D01*
X51000890Y-110592262D02*
X50953271Y-110497024D01*
X50953271Y-110497024D02*
X50905652Y-110449405D01*
X50905652Y-110449405D02*
X50810414Y-110401786D01*
X50810414Y-110401786D02*
X50762795Y-110401786D01*
X50762795Y-110401786D02*
X50667557Y-110449405D01*
X50667557Y-110449405D02*
X50619938Y-110497024D01*
X50619938Y-110497024D02*
X50572319Y-110592262D01*
X50572319Y-110592262D02*
X50572319Y-110782738D01*
X50572319Y-110782738D02*
X50619938Y-110877976D01*
X50619938Y-110877976D02*
X50667557Y-110925595D01*
X50667557Y-110925595D02*
X50762795Y-110973214D01*
X50762795Y-110973214D02*
X50810414Y-110973214D01*
X50810414Y-110973214D02*
X50905652Y-110925595D01*
X50905652Y-110925595D02*
X50953271Y-110877976D01*
X50953271Y-110877976D02*
X51000890Y-110782738D01*
X51000890Y-110782738D02*
X51000890Y-110592262D01*
X51000890Y-110592262D02*
X51048509Y-110497024D01*
X51048509Y-110497024D02*
X51096128Y-110449405D01*
X51096128Y-110449405D02*
X51191366Y-110401786D01*
X51191366Y-110401786D02*
X51381842Y-110401786D01*
X51381842Y-110401786D02*
X51477080Y-110449405D01*
X51477080Y-110449405D02*
X51524700Y-110497024D01*
X51524700Y-110497024D02*
X51572319Y-110592262D01*
X51572319Y-110592262D02*
X51572319Y-110782738D01*
X51572319Y-110782738D02*
X51524700Y-110877976D01*
X51524700Y-110877976D02*
X51477080Y-110925595D01*
X51477080Y-110925595D02*
X51381842Y-110973214D01*
X51381842Y-110973214D02*
X51191366Y-110973214D01*
X51191366Y-110973214D02*
X51096128Y-110925595D01*
X51096128Y-110925595D02*
X51048509Y-110877976D01*
X51048509Y-110877976D02*
X51000890Y-110782738D01*
X32522319Y-71349405D02*
X31522319Y-71349405D01*
X31522319Y-71349405D02*
X31522319Y-71587500D01*
X31522319Y-71587500D02*
X31569938Y-71730357D01*
X31569938Y-71730357D02*
X31665176Y-71825595D01*
X31665176Y-71825595D02*
X31760414Y-71873214D01*
X31760414Y-71873214D02*
X31950890Y-71920833D01*
X31950890Y-71920833D02*
X32093747Y-71920833D01*
X32093747Y-71920833D02*
X32284223Y-71873214D01*
X32284223Y-71873214D02*
X32379461Y-71825595D01*
X32379461Y-71825595D02*
X32474700Y-71730357D01*
X32474700Y-71730357D02*
X32522319Y-71587500D01*
X32522319Y-71587500D02*
X32522319Y-71349405D01*
X32522319Y-72873214D02*
X32522319Y-72301786D01*
X32522319Y-72587500D02*
X31522319Y-72587500D01*
X31522319Y-72587500D02*
X31665176Y-72492262D01*
X31665176Y-72492262D02*
X31760414Y-72397024D01*
X31760414Y-72397024D02*
X31808033Y-72301786D01*
X70622319Y-90399405D02*
X69622319Y-90399405D01*
X69622319Y-90399405D02*
X69622319Y-90637500D01*
X69622319Y-90637500D02*
X69669938Y-90780357D01*
X69669938Y-90780357D02*
X69765176Y-90875595D01*
X69765176Y-90875595D02*
X69860414Y-90923214D01*
X69860414Y-90923214D02*
X70050890Y-90970833D01*
X70050890Y-90970833D02*
X70193747Y-90970833D01*
X70193747Y-90970833D02*
X70384223Y-90923214D01*
X70384223Y-90923214D02*
X70479461Y-90875595D01*
X70479461Y-90875595D02*
X70574700Y-90780357D01*
X70574700Y-90780357D02*
X70622319Y-90637500D01*
X70622319Y-90637500D02*
X70622319Y-90399405D01*
X69622319Y-91827976D02*
X69622319Y-91637500D01*
X69622319Y-91637500D02*
X69669938Y-91542262D01*
X69669938Y-91542262D02*
X69717557Y-91494643D01*
X69717557Y-91494643D02*
X69860414Y-91399405D01*
X69860414Y-91399405D02*
X70050890Y-91351786D01*
X70050890Y-91351786D02*
X70431842Y-91351786D01*
X70431842Y-91351786D02*
X70527080Y-91399405D01*
X70527080Y-91399405D02*
X70574700Y-91447024D01*
X70574700Y-91447024D02*
X70622319Y-91542262D01*
X70622319Y-91542262D02*
X70622319Y-91732738D01*
X70622319Y-91732738D02*
X70574700Y-91827976D01*
X70574700Y-91827976D02*
X70527080Y-91875595D01*
X70527080Y-91875595D02*
X70431842Y-91923214D01*
X70431842Y-91923214D02*
X70193747Y-91923214D01*
X70193747Y-91923214D02*
X70098509Y-91875595D01*
X70098509Y-91875595D02*
X70050890Y-91827976D01*
X70050890Y-91827976D02*
X70003271Y-91732738D01*
X70003271Y-91732738D02*
X70003271Y-91542262D01*
X70003271Y-91542262D02*
X70050890Y-91447024D01*
X70050890Y-91447024D02*
X70098509Y-91399405D01*
X70098509Y-91399405D02*
X70193747Y-91351786D01*
X51573213Y-89192319D02*
X51573213Y-88192319D01*
X51573213Y-88192319D02*
X51239880Y-88906604D01*
X51239880Y-88906604D02*
X50906547Y-88192319D01*
X50906547Y-88192319D02*
X50906547Y-89192319D01*
X50525594Y-88192319D02*
X49858928Y-89192319D01*
X49858928Y-88192319D02*
X50525594Y-89192319D01*
X49001785Y-88192319D02*
X49477975Y-88192319D01*
X49477975Y-88192319D02*
X49525594Y-88668509D01*
X49525594Y-88668509D02*
X49477975Y-88620890D01*
X49477975Y-88620890D02*
X49382737Y-88573271D01*
X49382737Y-88573271D02*
X49144642Y-88573271D01*
X49144642Y-88573271D02*
X49049404Y-88620890D01*
X49049404Y-88620890D02*
X49001785Y-88668509D01*
X49001785Y-88668509D02*
X48954166Y-88763747D01*
X48954166Y-88763747D02*
X48954166Y-89001842D01*
X48954166Y-89001842D02*
X49001785Y-89097080D01*
X49001785Y-89097080D02*
X49049404Y-89144700D01*
X49049404Y-89144700D02*
X49144642Y-89192319D01*
X49144642Y-89192319D02*
X49382737Y-89192319D01*
X49382737Y-89192319D02*
X49477975Y-89144700D01*
X49477975Y-89144700D02*
X49525594Y-89097080D01*
X51572319Y-71349405D02*
X50572319Y-71349405D01*
X50572319Y-71349405D02*
X50572319Y-71587500D01*
X50572319Y-71587500D02*
X50619938Y-71730357D01*
X50619938Y-71730357D02*
X50715176Y-71825595D01*
X50715176Y-71825595D02*
X50810414Y-71873214D01*
X50810414Y-71873214D02*
X51000890Y-71920833D01*
X51000890Y-71920833D02*
X51143747Y-71920833D01*
X51143747Y-71920833D02*
X51334223Y-71873214D01*
X51334223Y-71873214D02*
X51429461Y-71825595D01*
X51429461Y-71825595D02*
X51524700Y-71730357D01*
X51524700Y-71730357D02*
X51572319Y-71587500D01*
X51572319Y-71587500D02*
X51572319Y-71349405D01*
X50667557Y-72301786D02*
X50619938Y-72349405D01*
X50619938Y-72349405D02*
X50572319Y-72444643D01*
X50572319Y-72444643D02*
X50572319Y-72682738D01*
X50572319Y-72682738D02*
X50619938Y-72777976D01*
X50619938Y-72777976D02*
X50667557Y-72825595D01*
X50667557Y-72825595D02*
X50762795Y-72873214D01*
X50762795Y-72873214D02*
X50858033Y-72873214D01*
X50858033Y-72873214D02*
X51000890Y-72825595D01*
X51000890Y-72825595D02*
X51572319Y-72254167D01*
X51572319Y-72254167D02*
X51572319Y-72873214D01*
X51572319Y-90399405D02*
X50572319Y-90399405D01*
X50572319Y-90399405D02*
X50572319Y-90637500D01*
X50572319Y-90637500D02*
X50619938Y-90780357D01*
X50619938Y-90780357D02*
X50715176Y-90875595D01*
X50715176Y-90875595D02*
X50810414Y-90923214D01*
X50810414Y-90923214D02*
X51000890Y-90970833D01*
X51000890Y-90970833D02*
X51143747Y-90970833D01*
X51143747Y-90970833D02*
X51334223Y-90923214D01*
X51334223Y-90923214D02*
X51429461Y-90875595D01*
X51429461Y-90875595D02*
X51524700Y-90780357D01*
X51524700Y-90780357D02*
X51572319Y-90637500D01*
X51572319Y-90637500D02*
X51572319Y-90399405D01*
X50572319Y-91875595D02*
X50572319Y-91399405D01*
X50572319Y-91399405D02*
X51048509Y-91351786D01*
X51048509Y-91351786D02*
X51000890Y-91399405D01*
X51000890Y-91399405D02*
X50953271Y-91494643D01*
X50953271Y-91494643D02*
X50953271Y-91732738D01*
X50953271Y-91732738D02*
X51000890Y-91827976D01*
X51000890Y-91827976D02*
X51048509Y-91875595D01*
X51048509Y-91875595D02*
X51143747Y-91923214D01*
X51143747Y-91923214D02*
X51381842Y-91923214D01*
X51381842Y-91923214D02*
X51477080Y-91875595D01*
X51477080Y-91875595D02*
X51524700Y-91827976D01*
X51524700Y-91827976D02*
X51572319Y-91732738D01*
X51572319Y-91732738D02*
X51572319Y-91494643D01*
X51572319Y-91494643D02*
X51524700Y-91399405D01*
X51524700Y-91399405D02*
X51477080Y-91351786D01*
X32523213Y-89192319D02*
X32523213Y-88192319D01*
X32523213Y-88192319D02*
X32189880Y-88906604D01*
X32189880Y-88906604D02*
X31856547Y-88192319D01*
X31856547Y-88192319D02*
X31856547Y-89192319D01*
X31475594Y-88192319D02*
X30808928Y-89192319D01*
X30808928Y-88192319D02*
X31475594Y-89192319D01*
X29999404Y-88525652D02*
X29999404Y-89192319D01*
X30237499Y-88144700D02*
X30475594Y-88858985D01*
X30475594Y-88858985D02*
X29856547Y-88858985D01*
X32522319Y-109449405D02*
X31522319Y-109449405D01*
X31522319Y-109449405D02*
X31522319Y-109687500D01*
X31522319Y-109687500D02*
X31569938Y-109830357D01*
X31569938Y-109830357D02*
X31665176Y-109925595D01*
X31665176Y-109925595D02*
X31760414Y-109973214D01*
X31760414Y-109973214D02*
X31950890Y-110020833D01*
X31950890Y-110020833D02*
X32093747Y-110020833D01*
X32093747Y-110020833D02*
X32284223Y-109973214D01*
X32284223Y-109973214D02*
X32379461Y-109925595D01*
X32379461Y-109925595D02*
X32474700Y-109830357D01*
X32474700Y-109830357D02*
X32522319Y-109687500D01*
X32522319Y-109687500D02*
X32522319Y-109449405D01*
X31522319Y-110354167D02*
X31522319Y-111020833D01*
X31522319Y-111020833D02*
X32522319Y-110592262D01*
X32523213Y-108242319D02*
X32523213Y-107242319D01*
X32523213Y-107242319D02*
X32189880Y-107956604D01*
X32189880Y-107956604D02*
X31856547Y-107242319D01*
X31856547Y-107242319D02*
X31856547Y-108242319D01*
X31475594Y-107242319D02*
X30808928Y-108242319D01*
X30808928Y-107242319D02*
X31475594Y-108242319D01*
X30523213Y-107242319D02*
X29856547Y-107242319D01*
X29856547Y-107242319D02*
X30285118Y-108242319D01*
X70622319Y-109449405D02*
X69622319Y-109449405D01*
X69622319Y-109449405D02*
X69622319Y-109687500D01*
X69622319Y-109687500D02*
X69669938Y-109830357D01*
X69669938Y-109830357D02*
X69765176Y-109925595D01*
X69765176Y-109925595D02*
X69860414Y-109973214D01*
X69860414Y-109973214D02*
X70050890Y-110020833D01*
X70050890Y-110020833D02*
X70193747Y-110020833D01*
X70193747Y-110020833D02*
X70384223Y-109973214D01*
X70384223Y-109973214D02*
X70479461Y-109925595D01*
X70479461Y-109925595D02*
X70574700Y-109830357D01*
X70574700Y-109830357D02*
X70622319Y-109687500D01*
X70622319Y-109687500D02*
X70622319Y-109449405D01*
X70622319Y-110497024D02*
X70622319Y-110687500D01*
X70622319Y-110687500D02*
X70574700Y-110782738D01*
X70574700Y-110782738D02*
X70527080Y-110830357D01*
X70527080Y-110830357D02*
X70384223Y-110925595D01*
X70384223Y-110925595D02*
X70193747Y-110973214D01*
X70193747Y-110973214D02*
X69812795Y-110973214D01*
X69812795Y-110973214D02*
X69717557Y-110925595D01*
X69717557Y-110925595D02*
X69669938Y-110877976D01*
X69669938Y-110877976D02*
X69622319Y-110782738D01*
X69622319Y-110782738D02*
X69622319Y-110592262D01*
X69622319Y-110592262D02*
X69669938Y-110497024D01*
X69669938Y-110497024D02*
X69717557Y-110449405D01*
X69717557Y-110449405D02*
X69812795Y-110401786D01*
X69812795Y-110401786D02*
X70050890Y-110401786D01*
X70050890Y-110401786D02*
X70146128Y-110449405D01*
X70146128Y-110449405D02*
X70193747Y-110497024D01*
X70193747Y-110497024D02*
X70241366Y-110592262D01*
X70241366Y-110592262D02*
X70241366Y-110782738D01*
X70241366Y-110782738D02*
X70193747Y-110877976D01*
X70193747Y-110877976D02*
X70146128Y-110925595D01*
X70146128Y-110925595D02*
X70050890Y-110973214D01*
X70623213Y-108242319D02*
X70623213Y-107242319D01*
X70623213Y-107242319D02*
X70289880Y-107956604D01*
X70289880Y-107956604D02*
X69956547Y-107242319D01*
X69956547Y-107242319D02*
X69956547Y-108242319D01*
X69575594Y-107242319D02*
X68908928Y-108242319D01*
X68908928Y-107242319D02*
X69575594Y-108242319D01*
X68480356Y-108242319D02*
X68289880Y-108242319D01*
X68289880Y-108242319D02*
X68194642Y-108194700D01*
X68194642Y-108194700D02*
X68147023Y-108147080D01*
X68147023Y-108147080D02*
X68051785Y-108004223D01*
X68051785Y-108004223D02*
X68004166Y-107813747D01*
X68004166Y-107813747D02*
X68004166Y-107432795D01*
X68004166Y-107432795D02*
X68051785Y-107337557D01*
X68051785Y-107337557D02*
X68099404Y-107289938D01*
X68099404Y-107289938D02*
X68194642Y-107242319D01*
X68194642Y-107242319D02*
X68385118Y-107242319D01*
X68385118Y-107242319D02*
X68480356Y-107289938D01*
X68480356Y-107289938D02*
X68527975Y-107337557D01*
X68527975Y-107337557D02*
X68575594Y-107432795D01*
X68575594Y-107432795D02*
X68575594Y-107670890D01*
X68575594Y-107670890D02*
X68527975Y-107766128D01*
X68527975Y-107766128D02*
X68480356Y-107813747D01*
X68480356Y-107813747D02*
X68385118Y-107861366D01*
X68385118Y-107861366D02*
X68194642Y-107861366D01*
X68194642Y-107861366D02*
X68099404Y-107813747D01*
X68099404Y-107813747D02*
X68051785Y-107766128D01*
X68051785Y-107766128D02*
X68004166Y-107670890D01*
X70623213Y-89192319D02*
X70623213Y-88192319D01*
X70623213Y-88192319D02*
X70289880Y-88906604D01*
X70289880Y-88906604D02*
X69956547Y-88192319D01*
X69956547Y-88192319D02*
X69956547Y-89192319D01*
X69575594Y-88192319D02*
X68908928Y-89192319D01*
X68908928Y-88192319D02*
X69575594Y-89192319D01*
X68099404Y-88192319D02*
X68289880Y-88192319D01*
X68289880Y-88192319D02*
X68385118Y-88239938D01*
X68385118Y-88239938D02*
X68432737Y-88287557D01*
X68432737Y-88287557D02*
X68527975Y-88430414D01*
X68527975Y-88430414D02*
X68575594Y-88620890D01*
X68575594Y-88620890D02*
X68575594Y-89001842D01*
X68575594Y-89001842D02*
X68527975Y-89097080D01*
X68527975Y-89097080D02*
X68480356Y-89144700D01*
X68480356Y-89144700D02*
X68385118Y-89192319D01*
X68385118Y-89192319D02*
X68194642Y-89192319D01*
X68194642Y-89192319D02*
X68099404Y-89144700D01*
X68099404Y-89144700D02*
X68051785Y-89097080D01*
X68051785Y-89097080D02*
X68004166Y-89001842D01*
X68004166Y-89001842D02*
X68004166Y-88763747D01*
X68004166Y-88763747D02*
X68051785Y-88668509D01*
X68051785Y-88668509D02*
X68099404Y-88620890D01*
X68099404Y-88620890D02*
X68194642Y-88573271D01*
X68194642Y-88573271D02*
X68385118Y-88573271D01*
X68385118Y-88573271D02*
X68480356Y-88620890D01*
X68480356Y-88620890D02*
X68527975Y-88668509D01*
X68527975Y-88668509D02*
X68575594Y-88763747D01*
X51573213Y-108242319D02*
X51573213Y-107242319D01*
X51573213Y-107242319D02*
X51239880Y-107956604D01*
X51239880Y-107956604D02*
X50906547Y-107242319D01*
X50906547Y-107242319D02*
X50906547Y-108242319D01*
X50525594Y-107242319D02*
X49858928Y-108242319D01*
X49858928Y-107242319D02*
X50525594Y-108242319D01*
X49335118Y-107670890D02*
X49430356Y-107623271D01*
X49430356Y-107623271D02*
X49477975Y-107575652D01*
X49477975Y-107575652D02*
X49525594Y-107480414D01*
X49525594Y-107480414D02*
X49525594Y-107432795D01*
X49525594Y-107432795D02*
X49477975Y-107337557D01*
X49477975Y-107337557D02*
X49430356Y-107289938D01*
X49430356Y-107289938D02*
X49335118Y-107242319D01*
X49335118Y-107242319D02*
X49144642Y-107242319D01*
X49144642Y-107242319D02*
X49049404Y-107289938D01*
X49049404Y-107289938D02*
X49001785Y-107337557D01*
X49001785Y-107337557D02*
X48954166Y-107432795D01*
X48954166Y-107432795D02*
X48954166Y-107480414D01*
X48954166Y-107480414D02*
X49001785Y-107575652D01*
X49001785Y-107575652D02*
X49049404Y-107623271D01*
X49049404Y-107623271D02*
X49144642Y-107670890D01*
X49144642Y-107670890D02*
X49335118Y-107670890D01*
X49335118Y-107670890D02*
X49430356Y-107718509D01*
X49430356Y-107718509D02*
X49477975Y-107766128D01*
X49477975Y-107766128D02*
X49525594Y-107861366D01*
X49525594Y-107861366D02*
X49525594Y-108051842D01*
X49525594Y-108051842D02*
X49477975Y-108147080D01*
X49477975Y-108147080D02*
X49430356Y-108194700D01*
X49430356Y-108194700D02*
X49335118Y-108242319D01*
X49335118Y-108242319D02*
X49144642Y-108242319D01*
X49144642Y-108242319D02*
X49049404Y-108194700D01*
X49049404Y-108194700D02*
X49001785Y-108147080D01*
X49001785Y-108147080D02*
X48954166Y-108051842D01*
X48954166Y-108051842D02*
X48954166Y-107861366D01*
X48954166Y-107861366D02*
X49001785Y-107766128D01*
X49001785Y-107766128D02*
X49049404Y-107718509D01*
X49049404Y-107718509D02*
X49144642Y-107670890D01*
X70623213Y-70142319D02*
X70623213Y-69142319D01*
X70623213Y-69142319D02*
X70289880Y-69856604D01*
X70289880Y-69856604D02*
X69956547Y-69142319D01*
X69956547Y-69142319D02*
X69956547Y-70142319D01*
X69575594Y-69142319D02*
X68908928Y-70142319D01*
X68908928Y-69142319D02*
X69575594Y-70142319D01*
X68623213Y-69142319D02*
X68004166Y-69142319D01*
X68004166Y-69142319D02*
X68337499Y-69523271D01*
X68337499Y-69523271D02*
X68194642Y-69523271D01*
X68194642Y-69523271D02*
X68099404Y-69570890D01*
X68099404Y-69570890D02*
X68051785Y-69618509D01*
X68051785Y-69618509D02*
X68004166Y-69713747D01*
X68004166Y-69713747D02*
X68004166Y-69951842D01*
X68004166Y-69951842D02*
X68051785Y-70047080D01*
X68051785Y-70047080D02*
X68099404Y-70094700D01*
X68099404Y-70094700D02*
X68194642Y-70142319D01*
X68194642Y-70142319D02*
X68480356Y-70142319D01*
X68480356Y-70142319D02*
X68575594Y-70094700D01*
X68575594Y-70094700D02*
X68623213Y-70047080D01*
D11*
%TO.C,U1*%
X15163000Y-40322500D02*
X15163000Y-58102500D01*
X15163000Y-58102500D02*
X48183000Y-58102500D01*
X17703000Y-55562500D02*
X17703000Y-58102500D01*
X17703000Y-55562500D02*
X20243000Y-55562500D01*
X20243000Y-55562500D02*
X20243000Y-58102500D01*
X48183000Y-40322500D02*
X15163000Y-40322500D01*
X48183000Y-58102500D02*
X48183000Y-40322500D01*
D10*
X24392030Y-42967865D02*
X23592030Y-42967865D01*
X23592030Y-42867865D01*
X24392030Y-42867865D01*
X24392030Y-42967865D01*
G36*
X24392030Y-42967865D02*
G01*
X23592030Y-42967865D01*
X23592030Y-42867865D01*
X24392030Y-42867865D01*
X24392030Y-42967865D01*
G37*
X23692030Y-43367865D02*
X23592030Y-43367865D01*
X23592030Y-42867865D01*
X23692030Y-42867865D01*
X23692030Y-43367865D01*
G36*
X23692030Y-43367865D02*
G01*
X23592030Y-43367865D01*
X23592030Y-42867865D01*
X23692030Y-42867865D01*
X23692030Y-43367865D01*
G37*
X23892030Y-43367865D02*
X23592030Y-43367865D01*
X23592030Y-43267865D01*
X23892030Y-43267865D01*
X23892030Y-43367865D01*
G36*
X23892030Y-43367865D02*
G01*
X23592030Y-43367865D01*
X23592030Y-43267865D01*
X23892030Y-43267865D01*
X23892030Y-43367865D01*
G37*
X24092030Y-43167865D02*
X23992030Y-43167865D01*
X23992030Y-43067865D01*
X24092030Y-43067865D01*
X24092030Y-43167865D01*
G36*
X24092030Y-43167865D02*
G01*
X23992030Y-43167865D01*
X23992030Y-43067865D01*
X24092030Y-43067865D01*
X24092030Y-43167865D01*
G37*
X24392030Y-43367865D02*
X24192030Y-43367865D01*
X24192030Y-43267865D01*
X24392030Y-43267865D01*
X24392030Y-43367865D01*
G36*
X24392030Y-43367865D02*
G01*
X24192030Y-43367865D01*
X24192030Y-43267865D01*
X24392030Y-43267865D01*
X24392030Y-43367865D01*
G37*
%TO.C,MX1*%
X31852324Y-67767280D02*
X31852324Y-68237280D01*
X31852324Y-64687280D02*
X31852324Y-64917280D01*
X31352324Y-68737280D02*
X26787500Y-68737280D01*
X30302324Y-64687280D02*
X31852324Y-64687280D01*
X22902324Y-64687280D02*
X28802324Y-64687280D01*
X20902324Y-70337280D02*
X20902324Y-70577280D01*
X20902324Y-67487280D02*
X20902324Y-66687280D01*
X31352324Y-68737280D02*
G75*
G03*
X31852324Y-68237280I-1J500001D01*
G01*
X26787500Y-68737281D02*
G75*
G03*
X24493179Y-70577280I-866J-2349331D01*
G01*
X22902324Y-64687280D02*
G75*
G03*
X20902324Y-66687280I4J-2000004D01*
G01*
%TO.C,MX2*%
X50902324Y-67767280D02*
X50902324Y-68237280D01*
X50902324Y-64687280D02*
X50902324Y-64917280D01*
X50402324Y-68737280D02*
X45837500Y-68737280D01*
X49352324Y-64687280D02*
X50902324Y-64687280D01*
X41952324Y-64687280D02*
X47852324Y-64687280D01*
X39952324Y-70337280D02*
X39952324Y-70577280D01*
X39952324Y-67487280D02*
X39952324Y-66687280D01*
X50402324Y-68737280D02*
G75*
G03*
X50902324Y-68237280I-1J500001D01*
G01*
X45837500Y-68737281D02*
G75*
G03*
X43543179Y-70577280I-866J-2349331D01*
G01*
X41952324Y-64687280D02*
G75*
G03*
X39952324Y-66687280I4J-2000004D01*
G01*
D12*
%TO.C,D3*%
X67167500Y-74447500D02*
X67167500Y-70437500D01*
X69167500Y-74447500D02*
X67167500Y-74447500D01*
X69167500Y-74447500D02*
X69167500Y-70437500D01*
%TO.C,D4*%
X29067500Y-93497500D02*
X29067500Y-89487500D01*
X31067500Y-93497500D02*
X29067500Y-93497500D01*
X31067500Y-93497500D02*
X31067500Y-89487500D01*
%TO.C,D8*%
X48117500Y-112547500D02*
X48117500Y-108537500D01*
X50117500Y-112547500D02*
X48117500Y-112547500D01*
X50117500Y-112547500D02*
X50117500Y-108537500D01*
%TO.C,D1*%
X29067500Y-74447500D02*
X29067500Y-70437500D01*
X31067500Y-74447500D02*
X29067500Y-74447500D01*
X31067500Y-74447500D02*
X31067500Y-70437500D01*
%TO.C,D6*%
X67167500Y-93497500D02*
X67167500Y-89487500D01*
X69167500Y-93497500D02*
X67167500Y-93497500D01*
X69167500Y-93497500D02*
X69167500Y-89487500D01*
D10*
%TO.C,MX5*%
X50902324Y-86817280D02*
X50902324Y-87287280D01*
X50902324Y-83737280D02*
X50902324Y-83967280D01*
X50402324Y-87787280D02*
X45837500Y-87787280D01*
X49352324Y-83737280D02*
X50902324Y-83737280D01*
X41952324Y-83737280D02*
X47852324Y-83737280D01*
X39952324Y-89387280D02*
X39952324Y-89627280D01*
X39952324Y-86537280D02*
X39952324Y-85737280D01*
X50402324Y-87787280D02*
G75*
G03*
X50902324Y-87287280I-1J500001D01*
G01*
X45837500Y-87787281D02*
G75*
G03*
X43543179Y-89627280I-866J-2349331D01*
G01*
X41952324Y-83737280D02*
G75*
G03*
X39952324Y-85737280I4J-2000004D01*
G01*
D12*
%TO.C,D2*%
X48117500Y-74447500D02*
X48117500Y-70437500D01*
X50117500Y-74447500D02*
X48117500Y-74447500D01*
X50117500Y-74447500D02*
X50117500Y-70437500D01*
%TO.C,D5*%
X48117500Y-93497500D02*
X48117500Y-89487500D01*
X50117500Y-93497500D02*
X48117500Y-93497500D01*
X50117500Y-93497500D02*
X50117500Y-89487500D01*
D10*
%TO.C,MX4*%
X31852324Y-86817280D02*
X31852324Y-87287280D01*
X31852324Y-83737280D02*
X31852324Y-83967280D01*
X31352324Y-87787280D02*
X26787500Y-87787280D01*
X30302324Y-83737280D02*
X31852324Y-83737280D01*
X22902324Y-83737280D02*
X28802324Y-83737280D01*
X20902324Y-89387280D02*
X20902324Y-89627280D01*
X20902324Y-86537280D02*
X20902324Y-85737280D01*
X31352324Y-87787280D02*
G75*
G03*
X31852324Y-87287280I-1J500001D01*
G01*
X26787500Y-87787281D02*
G75*
G03*
X24493179Y-89627280I-866J-2349331D01*
G01*
X22902324Y-83737280D02*
G75*
G03*
X20902324Y-85737280I4J-2000004D01*
G01*
D12*
%TO.C,D7*%
X29067500Y-112547500D02*
X29067500Y-108537500D01*
X31067500Y-112547500D02*
X29067500Y-112547500D01*
X31067500Y-112547500D02*
X31067500Y-108537500D01*
D10*
%TO.C,MX7*%
X31852324Y-105867280D02*
X31852324Y-106337280D01*
X31852324Y-102787280D02*
X31852324Y-103017280D01*
X31352324Y-106837280D02*
X26787500Y-106837280D01*
X30302324Y-102787280D02*
X31852324Y-102787280D01*
X22902324Y-102787280D02*
X28802324Y-102787280D01*
X20902324Y-108437280D02*
X20902324Y-108677280D01*
X20902324Y-105587280D02*
X20902324Y-104787280D01*
X31352324Y-106837280D02*
G75*
G03*
X31852324Y-106337280I-1J500001D01*
G01*
X26787500Y-106837281D02*
G75*
G03*
X24493179Y-108677280I-866J-2349331D01*
G01*
X22902324Y-102787280D02*
G75*
G03*
X20902324Y-104787280I4J-2000004D01*
G01*
D12*
%TO.C,D9*%
X67167500Y-112547500D02*
X67167500Y-108537500D01*
X69167500Y-112547500D02*
X67167500Y-112547500D01*
X69167500Y-112547500D02*
X69167500Y-108537500D01*
D10*
%TO.C,MX9*%
X69952324Y-105867280D02*
X69952324Y-106337280D01*
X69952324Y-102787280D02*
X69952324Y-103017280D01*
X69452324Y-106837280D02*
X64887500Y-106837280D01*
X68402324Y-102787280D02*
X69952324Y-102787280D01*
X61002324Y-102787280D02*
X66902324Y-102787280D01*
X59002324Y-108437280D02*
X59002324Y-108677280D01*
X59002324Y-105587280D02*
X59002324Y-104787280D01*
X69452324Y-106837280D02*
G75*
G03*
X69952324Y-106337280I-1J500001D01*
G01*
X64887500Y-106837281D02*
G75*
G03*
X62593179Y-108677280I-866J-2349331D01*
G01*
X61002324Y-102787280D02*
G75*
G03*
X59002324Y-104787280I4J-2000004D01*
G01*
%TO.C,MX6*%
X69952324Y-86817280D02*
X69952324Y-87287280D01*
X69952324Y-83737280D02*
X69952324Y-83967280D01*
X69452324Y-87787280D02*
X64887500Y-87787280D01*
X68402324Y-83737280D02*
X69952324Y-83737280D01*
X61002324Y-83737280D02*
X66902324Y-83737280D01*
X59002324Y-89387280D02*
X59002324Y-89627280D01*
X59002324Y-86537280D02*
X59002324Y-85737280D01*
X69452324Y-87787280D02*
G75*
G03*
X69952324Y-87287280I-1J500001D01*
G01*
X64887500Y-87787281D02*
G75*
G03*
X62593179Y-89627280I-866J-2349331D01*
G01*
X61002324Y-83737280D02*
G75*
G03*
X59002324Y-85737280I4J-2000004D01*
G01*
%TO.C,MX8*%
X50902324Y-105867280D02*
X50902324Y-106337280D01*
X50902324Y-102787280D02*
X50902324Y-103017280D01*
X50402324Y-106837280D02*
X45837500Y-106837280D01*
X49352324Y-102787280D02*
X50902324Y-102787280D01*
X41952324Y-102787280D02*
X47852324Y-102787280D01*
X39952324Y-108437280D02*
X39952324Y-108677280D01*
X39952324Y-105587280D02*
X39952324Y-104787280D01*
X50402324Y-106837280D02*
G75*
G03*
X50902324Y-106337280I-1J500001D01*
G01*
X45837500Y-106837281D02*
G75*
G03*
X43543179Y-108677280I-866J-2349331D01*
G01*
X41952324Y-102787280D02*
G75*
G03*
X39952324Y-104787280I4J-2000004D01*
G01*
%TO.C,MX3*%
X69952324Y-67767280D02*
X69952324Y-68237280D01*
X69952324Y-64687280D02*
X69952324Y-64917280D01*
X69452324Y-68737280D02*
X64887500Y-68737280D01*
X68402324Y-64687280D02*
X69952324Y-64687280D01*
X61002324Y-64687280D02*
X66902324Y-64687280D01*
X59002324Y-70337280D02*
X59002324Y-70577280D01*
X59002324Y-67487280D02*
X59002324Y-66687280D01*
X69452324Y-68737280D02*
G75*
G03*
X69952324Y-68237280I-1J500001D01*
G01*
X64887500Y-68737281D02*
G75*
G03*
X62593179Y-70577280I-866J-2349331D01*
G01*
X61002324Y-64687280D02*
G75*
G03*
X59002324Y-66687280I4J-2000004D01*
G01*
%TD*%
D13*
%TO.C,U1*%
X18973000Y-56832500D03*
D14*
X21513000Y-56832500D03*
X24053000Y-56832500D03*
X26593000Y-56832500D03*
X29133000Y-56832500D03*
X31673000Y-56832500D03*
X34213000Y-56832500D03*
X36753000Y-56832500D03*
X39293000Y-56832500D03*
X41833000Y-56832500D03*
X44373000Y-56832500D03*
X46913000Y-56832500D03*
X46913000Y-41592500D03*
X44373000Y-41592500D03*
X41833000Y-41592500D03*
X39293000Y-41592500D03*
X36753000Y-41592500D03*
X34213000Y-41592500D03*
X31673000Y-41592500D03*
X29133000Y-41592500D03*
X26593000Y-41592500D03*
X24053000Y-41592500D03*
X21513000Y-41592500D03*
X18973000Y-41592500D03*
%TD*%
M02*
