M48
; DRILL file {KiCad 7.0.10} date Sun Apr 28 13:53:34 2024
; FORMAT={-:-/ absolute / inch / decimal}
; #@! TF.CreationDate,2024-04-28T13:53:34+05:00
; #@! TF.GenerationSoftware,Kicad,Pcbnew,7.0.10
; #@! TF.FileFunction,NonPlated,1,2,NPTH
FMAT,2
INCH
; #@! TA.AperFunction,NonPlated,NPTH,ComponentDrill
T1C0.0689
; #@! TA.AperFunction,NonPlated,NPTH,ComponentDrill
T2C0.1570
%
G90
G05
T1
X0.8625Y-2.8125
X0.8625Y-3.5625
X0.8625Y-4.3125
X1.2625Y-2.8125
X1.2625Y-3.5625
X1.2625Y-4.3125
X1.6125Y-2.8125
X1.6125Y-3.5625
X1.6125Y-4.3125
X2.0125Y-2.8125
X2.0125Y-3.5625
X2.0125Y-4.3125
X2.3625Y-2.8125
X2.3625Y-3.5625
X2.3625Y-4.3125
X2.7625Y-2.8125
X2.7625Y-3.5625
X2.7625Y-4.3125
T2
X1.0625Y-2.8125
X1.0625Y-3.5625
X1.0625Y-4.3125
X1.8125Y-2.8125
X1.8125Y-3.5625
X1.8125Y-4.3125
X2.5625Y-2.8125
X2.5625Y-3.5625
X2.5625Y-4.3125
M30
