%TF.GenerationSoftware,KiCad,Pcbnew,7.0.10*%
%TF.CreationDate,2024-04-28T13:40:23+05:00*%
%TF.ProjectId,custom_keyboard,63757374-6f6d-45f6-9b65-79626f617264,rev?*%
%TF.SameCoordinates,Original*%
%TF.FileFunction,Legend,Top*%
%TF.FilePolarity,Positive*%
%FSLAX46Y46*%
G04 Gerber Fmt 4.6, Leading zero omitted, Abs format (unit mm)*
G04 Created by KiCad (PCBNEW 7.0.10) date 2024-04-28 13:40:23*
%MOMM*%
%LPD*%
G01*
G04 APERTURE LIST*
%ADD10C,0.150000*%
%ADD11C,0.120000*%
%ADD12C,0.381000*%
%ADD13R,1.752600X1.752600*%
%ADD14C,1.752600*%
G04 APERTURE END LIST*
D10*
X27606069Y-39350720D02*
X26606069Y-39350720D01*
X26606069Y-39350720D02*
X27320354Y-39017387D01*
X27320354Y-39017387D02*
X26606069Y-38684054D01*
X26606069Y-38684054D02*
X27606069Y-38684054D01*
X27606069Y-37779292D02*
X27082259Y-37779292D01*
X27082259Y-37779292D02*
X26987021Y-37826911D01*
X26987021Y-37826911D02*
X26939402Y-37922149D01*
X26939402Y-37922149D02*
X26939402Y-38112625D01*
X26939402Y-38112625D02*
X26987021Y-38207863D01*
X27558450Y-37779292D02*
X27606069Y-37874530D01*
X27606069Y-37874530D02*
X27606069Y-38112625D01*
X27606069Y-38112625D02*
X27558450Y-38207863D01*
X27558450Y-38207863D02*
X27463211Y-38255482D01*
X27463211Y-38255482D02*
X27367973Y-38255482D01*
X27367973Y-38255482D02*
X27272735Y-38207863D01*
X27272735Y-38207863D02*
X27225116Y-38112625D01*
X27225116Y-38112625D02*
X27225116Y-37874530D01*
X27225116Y-37874530D02*
X27177497Y-37779292D01*
X27558450Y-36874530D02*
X27606069Y-36969768D01*
X27606069Y-36969768D02*
X27606069Y-37160244D01*
X27606069Y-37160244D02*
X27558450Y-37255482D01*
X27558450Y-37255482D02*
X27510830Y-37303101D01*
X27510830Y-37303101D02*
X27415592Y-37350720D01*
X27415592Y-37350720D02*
X27129878Y-37350720D01*
X27129878Y-37350720D02*
X27034640Y-37303101D01*
X27034640Y-37303101D02*
X26987021Y-37255482D01*
X26987021Y-37255482D02*
X26939402Y-37160244D01*
X26939402Y-37160244D02*
X26939402Y-36969768D01*
X26939402Y-36969768D02*
X26987021Y-36874530D01*
X27606069Y-36445958D02*
X26939402Y-36445958D01*
X27129878Y-36445958D02*
X27034640Y-36398339D01*
X27034640Y-36398339D02*
X26987021Y-36350720D01*
X26987021Y-36350720D02*
X26939402Y-36255482D01*
X26939402Y-36255482D02*
X26939402Y-36160244D01*
X27606069Y-35684053D02*
X27558450Y-35779291D01*
X27558450Y-35779291D02*
X27510830Y-35826910D01*
X27510830Y-35826910D02*
X27415592Y-35874529D01*
X27415592Y-35874529D02*
X27129878Y-35874529D01*
X27129878Y-35874529D02*
X27034640Y-35826910D01*
X27034640Y-35826910D02*
X26987021Y-35779291D01*
X26987021Y-35779291D02*
X26939402Y-35684053D01*
X26939402Y-35684053D02*
X26939402Y-35541196D01*
X26939402Y-35541196D02*
X26987021Y-35445958D01*
X26987021Y-35445958D02*
X27034640Y-35398339D01*
X27034640Y-35398339D02*
X27129878Y-35350720D01*
X27129878Y-35350720D02*
X27415592Y-35350720D01*
X27415592Y-35350720D02*
X27510830Y-35398339D01*
X27510830Y-35398339D02*
X27558450Y-35445958D01*
X27558450Y-35445958D02*
X27606069Y-35541196D01*
X27606069Y-35541196D02*
X27606069Y-35684053D01*
X27606069Y-34922148D02*
X26606069Y-34922148D01*
X27606069Y-34350720D02*
X27034640Y-34779291D01*
X26606069Y-34350720D02*
X27177497Y-34922148D01*
X27558450Y-33541196D02*
X27606069Y-33636434D01*
X27606069Y-33636434D02*
X27606069Y-33826910D01*
X27606069Y-33826910D02*
X27558450Y-33922148D01*
X27558450Y-33922148D02*
X27463211Y-33969767D01*
X27463211Y-33969767D02*
X27082259Y-33969767D01*
X27082259Y-33969767D02*
X26987021Y-33922148D01*
X26987021Y-33922148D02*
X26939402Y-33826910D01*
X26939402Y-33826910D02*
X26939402Y-33636434D01*
X26939402Y-33636434D02*
X26987021Y-33541196D01*
X26987021Y-33541196D02*
X27082259Y-33493577D01*
X27082259Y-33493577D02*
X27177497Y-33493577D01*
X27177497Y-33493577D02*
X27272735Y-33969767D01*
X26939402Y-33160243D02*
X27606069Y-32922148D01*
X26939402Y-32684053D02*
X27606069Y-32922148D01*
X27606069Y-32922148D02*
X27844164Y-33017386D01*
X27844164Y-33017386D02*
X27891783Y-33065005D01*
X27891783Y-33065005D02*
X27939402Y-33160243D01*
X27558450Y-32350719D02*
X27606069Y-32255481D01*
X27606069Y-32255481D02*
X27606069Y-32065005D01*
X27606069Y-32065005D02*
X27558450Y-31969767D01*
X27558450Y-31969767D02*
X27463211Y-31922148D01*
X27463211Y-31922148D02*
X27415592Y-31922148D01*
X27415592Y-31922148D02*
X27320354Y-31969767D01*
X27320354Y-31969767D02*
X27272735Y-32065005D01*
X27272735Y-32065005D02*
X27272735Y-32207862D01*
X27272735Y-32207862D02*
X27225116Y-32303100D01*
X27225116Y-32303100D02*
X27129878Y-32350719D01*
X27129878Y-32350719D02*
X27082259Y-32350719D01*
X27082259Y-32350719D02*
X26987021Y-32303100D01*
X26987021Y-32303100D02*
X26939402Y-32207862D01*
X26939402Y-32207862D02*
X26939402Y-32065005D01*
X26939402Y-32065005D02*
X26987021Y-31969767D01*
X29216069Y-38779292D02*
X28739878Y-39112625D01*
X29216069Y-39350720D02*
X28216069Y-39350720D01*
X28216069Y-39350720D02*
X28216069Y-38969768D01*
X28216069Y-38969768D02*
X28263688Y-38874530D01*
X28263688Y-38874530D02*
X28311307Y-38826911D01*
X28311307Y-38826911D02*
X28406545Y-38779292D01*
X28406545Y-38779292D02*
X28549402Y-38779292D01*
X28549402Y-38779292D02*
X28644640Y-38826911D01*
X28644640Y-38826911D02*
X28692259Y-38874530D01*
X28692259Y-38874530D02*
X28739878Y-38969768D01*
X28739878Y-38969768D02*
X28739878Y-39350720D01*
X29216069Y-37922149D02*
X28692259Y-37922149D01*
X28692259Y-37922149D02*
X28597021Y-37969768D01*
X28597021Y-37969768D02*
X28549402Y-38065006D01*
X28549402Y-38065006D02*
X28549402Y-38255482D01*
X28549402Y-38255482D02*
X28597021Y-38350720D01*
X29168450Y-37922149D02*
X29216069Y-38017387D01*
X29216069Y-38017387D02*
X29216069Y-38255482D01*
X29216069Y-38255482D02*
X29168450Y-38350720D01*
X29168450Y-38350720D02*
X29073211Y-38398339D01*
X29073211Y-38398339D02*
X28977973Y-38398339D01*
X28977973Y-38398339D02*
X28882735Y-38350720D01*
X28882735Y-38350720D02*
X28835116Y-38255482D01*
X28835116Y-38255482D02*
X28835116Y-38017387D01*
X28835116Y-38017387D02*
X28787497Y-37922149D01*
X29216069Y-37017387D02*
X28692259Y-37017387D01*
X28692259Y-37017387D02*
X28597021Y-37065006D01*
X28597021Y-37065006D02*
X28549402Y-37160244D01*
X28549402Y-37160244D02*
X28549402Y-37350720D01*
X28549402Y-37350720D02*
X28597021Y-37445958D01*
X29168450Y-37017387D02*
X29216069Y-37112625D01*
X29216069Y-37112625D02*
X29216069Y-37350720D01*
X29216069Y-37350720D02*
X29168450Y-37445958D01*
X29168450Y-37445958D02*
X29073211Y-37493577D01*
X29073211Y-37493577D02*
X28977973Y-37493577D01*
X28977973Y-37493577D02*
X28882735Y-37445958D01*
X28882735Y-37445958D02*
X28835116Y-37350720D01*
X28835116Y-37350720D02*
X28835116Y-37112625D01*
X28835116Y-37112625D02*
X28787497Y-37017387D01*
X29216069Y-36541196D02*
X28216069Y-36541196D01*
X29216069Y-36112625D02*
X28692259Y-36112625D01*
X28692259Y-36112625D02*
X28597021Y-36160244D01*
X28597021Y-36160244D02*
X28549402Y-36255482D01*
X28549402Y-36255482D02*
X28549402Y-36398339D01*
X28549402Y-36398339D02*
X28597021Y-36493577D01*
X28597021Y-36493577D02*
X28644640Y-36541196D01*
X29216069Y-35636434D02*
X28549402Y-35636434D01*
X28216069Y-35636434D02*
X28263688Y-35684053D01*
X28263688Y-35684053D02*
X28311307Y-35636434D01*
X28311307Y-35636434D02*
X28263688Y-35588815D01*
X28263688Y-35588815D02*
X28216069Y-35636434D01*
X28216069Y-35636434D02*
X28311307Y-35636434D01*
X29216069Y-35160244D02*
X28549402Y-35160244D01*
X28644640Y-35160244D02*
X28597021Y-35112625D01*
X28597021Y-35112625D02*
X28549402Y-35017387D01*
X28549402Y-35017387D02*
X28549402Y-34874530D01*
X28549402Y-34874530D02*
X28597021Y-34779292D01*
X28597021Y-34779292D02*
X28692259Y-34731673D01*
X28692259Y-34731673D02*
X29216069Y-34731673D01*
X28692259Y-34731673D02*
X28597021Y-34684054D01*
X28597021Y-34684054D02*
X28549402Y-34588816D01*
X28549402Y-34588816D02*
X28549402Y-34445959D01*
X28549402Y-34445959D02*
X28597021Y-34350720D01*
X28597021Y-34350720D02*
X28692259Y-34303101D01*
X28692259Y-34303101D02*
X29216069Y-34303101D01*
X28692259Y-32731673D02*
X28692259Y-33065006D01*
X29216069Y-33065006D02*
X28216069Y-33065006D01*
X28216069Y-33065006D02*
X28216069Y-32588816D01*
X29216069Y-31779292D02*
X28692259Y-31779292D01*
X28692259Y-31779292D02*
X28597021Y-31826911D01*
X28597021Y-31826911D02*
X28549402Y-31922149D01*
X28549402Y-31922149D02*
X28549402Y-32112625D01*
X28549402Y-32112625D02*
X28597021Y-32207863D01*
X29168450Y-31779292D02*
X29216069Y-31874530D01*
X29216069Y-31874530D02*
X29216069Y-32112625D01*
X29216069Y-32112625D02*
X29168450Y-32207863D01*
X29168450Y-32207863D02*
X29073211Y-32255482D01*
X29073211Y-32255482D02*
X28977973Y-32255482D01*
X28977973Y-32255482D02*
X28882735Y-32207863D01*
X28882735Y-32207863D02*
X28835116Y-32112625D01*
X28835116Y-32112625D02*
X28835116Y-31874530D01*
X28835116Y-31874530D02*
X28787497Y-31779292D01*
X29216069Y-31303101D02*
X28549402Y-31303101D01*
X28739878Y-31303101D02*
X28644640Y-31255482D01*
X28644640Y-31255482D02*
X28597021Y-31207863D01*
X28597021Y-31207863D02*
X28549402Y-31112625D01*
X28549402Y-31112625D02*
X28549402Y-31017387D01*
X29168450Y-30303101D02*
X29216069Y-30398339D01*
X29216069Y-30398339D02*
X29216069Y-30588815D01*
X29216069Y-30588815D02*
X29168450Y-30684053D01*
X29168450Y-30684053D02*
X29073211Y-30731672D01*
X29073211Y-30731672D02*
X28692259Y-30731672D01*
X28692259Y-30731672D02*
X28597021Y-30684053D01*
X28597021Y-30684053D02*
X28549402Y-30588815D01*
X28549402Y-30588815D02*
X28549402Y-30398339D01*
X28549402Y-30398339D02*
X28597021Y-30303101D01*
X28597021Y-30303101D02*
X28692259Y-30255482D01*
X28692259Y-30255482D02*
X28787497Y-30255482D01*
X28787497Y-30255482D02*
X28882735Y-30731672D01*
X29168450Y-29445958D02*
X29216069Y-29541196D01*
X29216069Y-29541196D02*
X29216069Y-29731672D01*
X29216069Y-29731672D02*
X29168450Y-29826910D01*
X29168450Y-29826910D02*
X29073211Y-29874529D01*
X29073211Y-29874529D02*
X28692259Y-29874529D01*
X28692259Y-29874529D02*
X28597021Y-29826910D01*
X28597021Y-29826910D02*
X28549402Y-29731672D01*
X28549402Y-29731672D02*
X28549402Y-29541196D01*
X28549402Y-29541196D02*
X28597021Y-29445958D01*
X28597021Y-29445958D02*
X28692259Y-29398339D01*
X28692259Y-29398339D02*
X28787497Y-29398339D01*
X28787497Y-29398339D02*
X28882735Y-29874529D01*
X29216069Y-28541196D02*
X28216069Y-28541196D01*
X29168450Y-28541196D02*
X29216069Y-28636434D01*
X29216069Y-28636434D02*
X29216069Y-28826910D01*
X29216069Y-28826910D02*
X29168450Y-28922148D01*
X29168450Y-28922148D02*
X29120830Y-28969767D01*
X29120830Y-28969767D02*
X29025592Y-29017386D01*
X29025592Y-29017386D02*
X28739878Y-29017386D01*
X28739878Y-29017386D02*
X28644640Y-28969767D01*
X28644640Y-28969767D02*
X28597021Y-28922148D01*
X28597021Y-28922148D02*
X28549402Y-28826910D01*
X28549402Y-28826910D02*
X28549402Y-28636434D01*
X28549402Y-28636434D02*
X28597021Y-28541196D01*
X30826069Y-39350720D02*
X30159402Y-39350720D01*
X30349878Y-39350720D02*
X30254640Y-39303101D01*
X30254640Y-39303101D02*
X30207021Y-39255482D01*
X30207021Y-39255482D02*
X30159402Y-39160244D01*
X30159402Y-39160244D02*
X30159402Y-39065006D01*
X30826069Y-38303101D02*
X30302259Y-38303101D01*
X30302259Y-38303101D02*
X30207021Y-38350720D01*
X30207021Y-38350720D02*
X30159402Y-38445958D01*
X30159402Y-38445958D02*
X30159402Y-38636434D01*
X30159402Y-38636434D02*
X30207021Y-38731672D01*
X30778450Y-38303101D02*
X30826069Y-38398339D01*
X30826069Y-38398339D02*
X30826069Y-38636434D01*
X30826069Y-38636434D02*
X30778450Y-38731672D01*
X30778450Y-38731672D02*
X30683211Y-38779291D01*
X30683211Y-38779291D02*
X30587973Y-38779291D01*
X30587973Y-38779291D02*
X30492735Y-38731672D01*
X30492735Y-38731672D02*
X30445116Y-38636434D01*
X30445116Y-38636434D02*
X30445116Y-38398339D01*
X30445116Y-38398339D02*
X30397497Y-38303101D01*
X30826069Y-37398339D02*
X30302259Y-37398339D01*
X30302259Y-37398339D02*
X30207021Y-37445958D01*
X30207021Y-37445958D02*
X30159402Y-37541196D01*
X30159402Y-37541196D02*
X30159402Y-37731672D01*
X30159402Y-37731672D02*
X30207021Y-37826910D01*
X30778450Y-37398339D02*
X30826069Y-37493577D01*
X30826069Y-37493577D02*
X30826069Y-37731672D01*
X30826069Y-37731672D02*
X30778450Y-37826910D01*
X30778450Y-37826910D02*
X30683211Y-37874529D01*
X30683211Y-37874529D02*
X30587973Y-37874529D01*
X30587973Y-37874529D02*
X30492735Y-37826910D01*
X30492735Y-37826910D02*
X30445116Y-37731672D01*
X30445116Y-37731672D02*
X30445116Y-37493577D01*
X30445116Y-37493577D02*
X30397497Y-37398339D01*
X30826069Y-36922148D02*
X29826069Y-36922148D01*
X30826069Y-36493577D02*
X30302259Y-36493577D01*
X30302259Y-36493577D02*
X30207021Y-36541196D01*
X30207021Y-36541196D02*
X30159402Y-36636434D01*
X30159402Y-36636434D02*
X30159402Y-36779291D01*
X30159402Y-36779291D02*
X30207021Y-36874529D01*
X30207021Y-36874529D02*
X30254640Y-36922148D01*
X30826069Y-36017386D02*
X30159402Y-36017386D01*
X29826069Y-36017386D02*
X29873688Y-36065005D01*
X29873688Y-36065005D02*
X29921307Y-36017386D01*
X29921307Y-36017386D02*
X29873688Y-35969767D01*
X29873688Y-35969767D02*
X29826069Y-36017386D01*
X29826069Y-36017386D02*
X29921307Y-36017386D01*
X30826069Y-35541196D02*
X30159402Y-35541196D01*
X30254640Y-35541196D02*
X30207021Y-35493577D01*
X30207021Y-35493577D02*
X30159402Y-35398339D01*
X30159402Y-35398339D02*
X30159402Y-35255482D01*
X30159402Y-35255482D02*
X30207021Y-35160244D01*
X30207021Y-35160244D02*
X30302259Y-35112625D01*
X30302259Y-35112625D02*
X30826069Y-35112625D01*
X30302259Y-35112625D02*
X30207021Y-35065006D01*
X30207021Y-35065006D02*
X30159402Y-34969768D01*
X30159402Y-34969768D02*
X30159402Y-34826911D01*
X30159402Y-34826911D02*
X30207021Y-34731672D01*
X30207021Y-34731672D02*
X30302259Y-34684053D01*
X30302259Y-34684053D02*
X30826069Y-34684053D01*
X30159402Y-34350720D02*
X30159402Y-33969768D01*
X30826069Y-34207863D02*
X29968926Y-34207863D01*
X29968926Y-34207863D02*
X29873688Y-34160244D01*
X29873688Y-34160244D02*
X29826069Y-34065006D01*
X29826069Y-34065006D02*
X29826069Y-33969768D01*
X30826069Y-33207863D02*
X30302259Y-33207863D01*
X30302259Y-33207863D02*
X30207021Y-33255482D01*
X30207021Y-33255482D02*
X30159402Y-33350720D01*
X30159402Y-33350720D02*
X30159402Y-33541196D01*
X30159402Y-33541196D02*
X30207021Y-33636434D01*
X30778450Y-33207863D02*
X30826069Y-33303101D01*
X30826069Y-33303101D02*
X30826069Y-33541196D01*
X30826069Y-33541196D02*
X30778450Y-33636434D01*
X30778450Y-33636434D02*
X30683211Y-33684053D01*
X30683211Y-33684053D02*
X30587973Y-33684053D01*
X30587973Y-33684053D02*
X30492735Y-33636434D01*
X30492735Y-33636434D02*
X30445116Y-33541196D01*
X30445116Y-33541196D02*
X30445116Y-33303101D01*
X30445116Y-33303101D02*
X30397497Y-33207863D01*
X30826069Y-32731672D02*
X30159402Y-32731672D01*
X30349878Y-32731672D02*
X30254640Y-32684053D01*
X30254640Y-32684053D02*
X30207021Y-32636434D01*
X30207021Y-32636434D02*
X30159402Y-32541196D01*
X30159402Y-32541196D02*
X30159402Y-32445958D01*
X30778450Y-31731672D02*
X30826069Y-31826910D01*
X30826069Y-31826910D02*
X30826069Y-32017386D01*
X30826069Y-32017386D02*
X30778450Y-32112624D01*
X30778450Y-32112624D02*
X30683211Y-32160243D01*
X30683211Y-32160243D02*
X30302259Y-32160243D01*
X30302259Y-32160243D02*
X30207021Y-32112624D01*
X30207021Y-32112624D02*
X30159402Y-32017386D01*
X30159402Y-32017386D02*
X30159402Y-31826910D01*
X30159402Y-31826910D02*
X30207021Y-31731672D01*
X30207021Y-31731672D02*
X30302259Y-31684053D01*
X30302259Y-31684053D02*
X30397497Y-31684053D01*
X30397497Y-31684053D02*
X30492735Y-32160243D01*
X30778450Y-30874529D02*
X30826069Y-30969767D01*
X30826069Y-30969767D02*
X30826069Y-31160243D01*
X30826069Y-31160243D02*
X30778450Y-31255481D01*
X30778450Y-31255481D02*
X30683211Y-31303100D01*
X30683211Y-31303100D02*
X30302259Y-31303100D01*
X30302259Y-31303100D02*
X30207021Y-31255481D01*
X30207021Y-31255481D02*
X30159402Y-31160243D01*
X30159402Y-31160243D02*
X30159402Y-30969767D01*
X30159402Y-30969767D02*
X30207021Y-30874529D01*
X30207021Y-30874529D02*
X30302259Y-30826910D01*
X30302259Y-30826910D02*
X30397497Y-30826910D01*
X30397497Y-30826910D02*
X30492735Y-31303100D01*
X30826069Y-29969767D02*
X29826069Y-29969767D01*
X30778450Y-29969767D02*
X30826069Y-30065005D01*
X30826069Y-30065005D02*
X30826069Y-30255481D01*
X30826069Y-30255481D02*
X30778450Y-30350719D01*
X30778450Y-30350719D02*
X30730830Y-30398338D01*
X30730830Y-30398338D02*
X30635592Y-30445957D01*
X30635592Y-30445957D02*
X30349878Y-30445957D01*
X30349878Y-30445957D02*
X30254640Y-30398338D01*
X30254640Y-30398338D02*
X30207021Y-30350719D01*
X30207021Y-30350719D02*
X30159402Y-30255481D01*
X30159402Y-30255481D02*
X30159402Y-30065005D01*
X30159402Y-30065005D02*
X30207021Y-29969767D01*
X30349878Y-28874529D02*
X30302259Y-28922148D01*
X30302259Y-28922148D02*
X30254640Y-29017386D01*
X30254640Y-29017386D02*
X30254640Y-29112624D01*
X30254640Y-29112624D02*
X30302259Y-29207862D01*
X30302259Y-29207862D02*
X30349878Y-29255481D01*
X30349878Y-29255481D02*
X30445116Y-29303100D01*
X30445116Y-29303100D02*
X30540354Y-29303100D01*
X30540354Y-29303100D02*
X30635592Y-29255481D01*
X30635592Y-29255481D02*
X30683211Y-29207862D01*
X30683211Y-29207862D02*
X30730830Y-29112624D01*
X30730830Y-29112624D02*
X30730830Y-29017386D01*
X30730830Y-29017386D02*
X30683211Y-28922148D01*
X30683211Y-28922148D02*
X30635592Y-28874529D01*
X30254640Y-28874529D02*
X30635592Y-28874529D01*
X30635592Y-28874529D02*
X30683211Y-28826910D01*
X30683211Y-28826910D02*
X30683211Y-28779291D01*
X30683211Y-28779291D02*
X30635592Y-28684052D01*
X30635592Y-28684052D02*
X30540354Y-28636433D01*
X30540354Y-28636433D02*
X30302259Y-28636433D01*
X30302259Y-28636433D02*
X30159402Y-28731672D01*
X30159402Y-28731672D02*
X30064164Y-28874529D01*
X30064164Y-28874529D02*
X30016545Y-29065005D01*
X30016545Y-29065005D02*
X30064164Y-29255481D01*
X30064164Y-29255481D02*
X30159402Y-29398338D01*
X30159402Y-29398338D02*
X30302259Y-29493576D01*
X30302259Y-29493576D02*
X30492735Y-29541195D01*
X30492735Y-29541195D02*
X30683211Y-29493576D01*
X30683211Y-29493576D02*
X30826069Y-29398338D01*
X30826069Y-29398338D02*
X30921307Y-29255481D01*
X30921307Y-29255481D02*
X30968926Y-29065005D01*
X30968926Y-29065005D02*
X30921307Y-28874529D01*
X30921307Y-28874529D02*
X30826069Y-28731672D01*
X30159402Y-28207862D02*
X31159402Y-28207862D01*
X30207021Y-28207862D02*
X30159402Y-28112624D01*
X30159402Y-28112624D02*
X30159402Y-27922148D01*
X30159402Y-27922148D02*
X30207021Y-27826910D01*
X30207021Y-27826910D02*
X30254640Y-27779291D01*
X30254640Y-27779291D02*
X30349878Y-27731672D01*
X30349878Y-27731672D02*
X30635592Y-27731672D01*
X30635592Y-27731672D02*
X30730830Y-27779291D01*
X30730830Y-27779291D02*
X30778450Y-27826910D01*
X30778450Y-27826910D02*
X30826069Y-27922148D01*
X30826069Y-27922148D02*
X30826069Y-28112624D01*
X30826069Y-28112624D02*
X30778450Y-28207862D01*
X30826069Y-27303100D02*
X30159402Y-27303100D01*
X30349878Y-27303100D02*
X30254640Y-27255481D01*
X30254640Y-27255481D02*
X30207021Y-27207862D01*
X30207021Y-27207862D02*
X30159402Y-27112624D01*
X30159402Y-27112624D02*
X30159402Y-27017386D01*
X30826069Y-26541195D02*
X30778450Y-26636433D01*
X30778450Y-26636433D02*
X30730830Y-26684052D01*
X30730830Y-26684052D02*
X30635592Y-26731671D01*
X30635592Y-26731671D02*
X30349878Y-26731671D01*
X30349878Y-26731671D02*
X30254640Y-26684052D01*
X30254640Y-26684052D02*
X30207021Y-26636433D01*
X30207021Y-26636433D02*
X30159402Y-26541195D01*
X30159402Y-26541195D02*
X30159402Y-26398338D01*
X30159402Y-26398338D02*
X30207021Y-26303100D01*
X30207021Y-26303100D02*
X30254640Y-26255481D01*
X30254640Y-26255481D02*
X30349878Y-26207862D01*
X30349878Y-26207862D02*
X30635592Y-26207862D01*
X30635592Y-26207862D02*
X30730830Y-26255481D01*
X30730830Y-26255481D02*
X30778450Y-26303100D01*
X30778450Y-26303100D02*
X30826069Y-26398338D01*
X30826069Y-26398338D02*
X30826069Y-26541195D01*
X30159402Y-25922147D02*
X30159402Y-25541195D01*
X29826069Y-25779290D02*
X30683211Y-25779290D01*
X30683211Y-25779290D02*
X30778450Y-25731671D01*
X30778450Y-25731671D02*
X30826069Y-25636433D01*
X30826069Y-25636433D02*
X30826069Y-25541195D01*
X30826069Y-25065004D02*
X30778450Y-25160242D01*
X30778450Y-25160242D02*
X30730830Y-25207861D01*
X30730830Y-25207861D02*
X30635592Y-25255480D01*
X30635592Y-25255480D02*
X30349878Y-25255480D01*
X30349878Y-25255480D02*
X30254640Y-25207861D01*
X30254640Y-25207861D02*
X30207021Y-25160242D01*
X30207021Y-25160242D02*
X30159402Y-25065004D01*
X30159402Y-25065004D02*
X30159402Y-24922147D01*
X30159402Y-24922147D02*
X30207021Y-24826909D01*
X30207021Y-24826909D02*
X30254640Y-24779290D01*
X30254640Y-24779290D02*
X30349878Y-24731671D01*
X30349878Y-24731671D02*
X30635592Y-24731671D01*
X30635592Y-24731671D02*
X30730830Y-24779290D01*
X30730830Y-24779290D02*
X30778450Y-24826909D01*
X30778450Y-24826909D02*
X30826069Y-24922147D01*
X30826069Y-24922147D02*
X30826069Y-25065004D01*
X30159402Y-24303099D02*
X30826069Y-24303099D01*
X30254640Y-24303099D02*
X30207021Y-24255480D01*
X30207021Y-24255480D02*
X30159402Y-24160242D01*
X30159402Y-24160242D02*
X30159402Y-24017385D01*
X30159402Y-24017385D02*
X30207021Y-23922147D01*
X30207021Y-23922147D02*
X30302259Y-23874528D01*
X30302259Y-23874528D02*
X30826069Y-23874528D01*
X30730830Y-23398337D02*
X30778450Y-23350718D01*
X30778450Y-23350718D02*
X30826069Y-23398337D01*
X30826069Y-23398337D02*
X30778450Y-23445956D01*
X30778450Y-23445956D02*
X30730830Y-23398337D01*
X30730830Y-23398337D02*
X30826069Y-23398337D01*
X30826069Y-22922147D02*
X30159402Y-22922147D01*
X30254640Y-22922147D02*
X30207021Y-22874528D01*
X30207021Y-22874528D02*
X30159402Y-22779290D01*
X30159402Y-22779290D02*
X30159402Y-22636433D01*
X30159402Y-22636433D02*
X30207021Y-22541195D01*
X30207021Y-22541195D02*
X30302259Y-22493576D01*
X30302259Y-22493576D02*
X30826069Y-22493576D01*
X30302259Y-22493576D02*
X30207021Y-22445957D01*
X30207021Y-22445957D02*
X30159402Y-22350719D01*
X30159402Y-22350719D02*
X30159402Y-22207862D01*
X30159402Y-22207862D02*
X30207021Y-22112623D01*
X30207021Y-22112623D02*
X30302259Y-22065004D01*
X30302259Y-22065004D02*
X30826069Y-22065004D01*
X30778450Y-21207862D02*
X30826069Y-21303100D01*
X30826069Y-21303100D02*
X30826069Y-21493576D01*
X30826069Y-21493576D02*
X30778450Y-21588814D01*
X30778450Y-21588814D02*
X30683211Y-21636433D01*
X30683211Y-21636433D02*
X30302259Y-21636433D01*
X30302259Y-21636433D02*
X30207021Y-21588814D01*
X30207021Y-21588814D02*
X30159402Y-21493576D01*
X30159402Y-21493576D02*
X30159402Y-21303100D01*
X30159402Y-21303100D02*
X30207021Y-21207862D01*
X30207021Y-21207862D02*
X30302259Y-21160243D01*
X30302259Y-21160243D02*
X30397497Y-21160243D01*
X30397497Y-21160243D02*
X30492735Y-21636433D01*
X65555833Y-28697319D02*
X65222500Y-28221128D01*
X64984405Y-28697319D02*
X64984405Y-27697319D01*
X64984405Y-27697319D02*
X65365357Y-27697319D01*
X65365357Y-27697319D02*
X65460595Y-27744938D01*
X65460595Y-27744938D02*
X65508214Y-27792557D01*
X65508214Y-27792557D02*
X65555833Y-27887795D01*
X65555833Y-27887795D02*
X65555833Y-28030652D01*
X65555833Y-28030652D02*
X65508214Y-28125890D01*
X65508214Y-28125890D02*
X65460595Y-28173509D01*
X65460595Y-28173509D02*
X65365357Y-28221128D01*
X65365357Y-28221128D02*
X64984405Y-28221128D01*
X65936786Y-27792557D02*
X65984405Y-27744938D01*
X65984405Y-27744938D02*
X66079643Y-27697319D01*
X66079643Y-27697319D02*
X66317738Y-27697319D01*
X66317738Y-27697319D02*
X66412976Y-27744938D01*
X66412976Y-27744938D02*
X66460595Y-27792557D01*
X66460595Y-27792557D02*
X66508214Y-27887795D01*
X66508214Y-27887795D02*
X66508214Y-27983033D01*
X66508214Y-27983033D02*
X66460595Y-28125890D01*
X66460595Y-28125890D02*
X65889167Y-28697319D01*
X65889167Y-28697319D02*
X66508214Y-28697319D01*
X65555833Y-25547319D02*
X65222500Y-25071128D01*
X64984405Y-25547319D02*
X64984405Y-24547319D01*
X64984405Y-24547319D02*
X65365357Y-24547319D01*
X65365357Y-24547319D02*
X65460595Y-24594938D01*
X65460595Y-24594938D02*
X65508214Y-24642557D01*
X65508214Y-24642557D02*
X65555833Y-24737795D01*
X65555833Y-24737795D02*
X65555833Y-24880652D01*
X65555833Y-24880652D02*
X65508214Y-24975890D01*
X65508214Y-24975890D02*
X65460595Y-25023509D01*
X65460595Y-25023509D02*
X65365357Y-25071128D01*
X65365357Y-25071128D02*
X64984405Y-25071128D01*
X66508214Y-25547319D02*
X65936786Y-25547319D01*
X66222500Y-25547319D02*
X66222500Y-24547319D01*
X66222500Y-24547319D02*
X66127262Y-24690176D01*
X66127262Y-24690176D02*
X66032024Y-24785414D01*
X66032024Y-24785414D02*
X65936786Y-24833033D01*
X44077083Y-28760009D02*
X44219940Y-28807628D01*
X44219940Y-28807628D02*
X44267559Y-28855247D01*
X44267559Y-28855247D02*
X44315178Y-28950485D01*
X44315178Y-28950485D02*
X44315178Y-29093342D01*
X44315178Y-29093342D02*
X44267559Y-29188580D01*
X44267559Y-29188580D02*
X44219940Y-29236200D01*
X44219940Y-29236200D02*
X44124702Y-29283819D01*
X44124702Y-29283819D02*
X43743750Y-29283819D01*
X43743750Y-29283819D02*
X43743750Y-28283819D01*
X43743750Y-28283819D02*
X44077083Y-28283819D01*
X44077083Y-28283819D02*
X44172321Y-28331438D01*
X44172321Y-28331438D02*
X44219940Y-28379057D01*
X44219940Y-28379057D02*
X44267559Y-28474295D01*
X44267559Y-28474295D02*
X44267559Y-28569533D01*
X44267559Y-28569533D02*
X44219940Y-28664771D01*
X44219940Y-28664771D02*
X44172321Y-28712390D01*
X44172321Y-28712390D02*
X44077083Y-28760009D01*
X44077083Y-28760009D02*
X43743750Y-28760009D01*
X44743750Y-29283819D02*
X44743750Y-28617152D01*
X44743750Y-28807628D02*
X44791369Y-28712390D01*
X44791369Y-28712390D02*
X44838988Y-28664771D01*
X44838988Y-28664771D02*
X44934226Y-28617152D01*
X44934226Y-28617152D02*
X45029464Y-28617152D01*
X45791369Y-29283819D02*
X45791369Y-28283819D01*
X45791369Y-29236200D02*
X45696131Y-29283819D01*
X45696131Y-29283819D02*
X45505655Y-29283819D01*
X45505655Y-29283819D02*
X45410417Y-29236200D01*
X45410417Y-29236200D02*
X45362798Y-29188580D01*
X45362798Y-29188580D02*
X45315179Y-29093342D01*
X45315179Y-29093342D02*
X45315179Y-28807628D01*
X45315179Y-28807628D02*
X45362798Y-28712390D01*
X45362798Y-28712390D02*
X45410417Y-28664771D01*
X45410417Y-28664771D02*
X45505655Y-28617152D01*
X45505655Y-28617152D02*
X45696131Y-28617152D01*
X45696131Y-28617152D02*
X45791369Y-28664771D01*
X46791369Y-29283819D02*
X46219941Y-29283819D01*
X46505655Y-29283819D02*
X46505655Y-28283819D01*
X46505655Y-28283819D02*
X46410417Y-28426676D01*
X46410417Y-28426676D02*
X46315179Y-28521914D01*
X46315179Y-28521914D02*
X46219941Y-28569533D01*
X56588450Y-54308332D02*
X56636069Y-54165475D01*
X56636069Y-54165475D02*
X56636069Y-53927380D01*
X56636069Y-53927380D02*
X56588450Y-53832142D01*
X56588450Y-53832142D02*
X56540830Y-53784523D01*
X56540830Y-53784523D02*
X56445592Y-53736904D01*
X56445592Y-53736904D02*
X56350354Y-53736904D01*
X56350354Y-53736904D02*
X56255116Y-53784523D01*
X56255116Y-53784523D02*
X56207497Y-53832142D01*
X56207497Y-53832142D02*
X56159878Y-53927380D01*
X56159878Y-53927380D02*
X56112259Y-54117856D01*
X56112259Y-54117856D02*
X56064640Y-54213094D01*
X56064640Y-54213094D02*
X56017021Y-54260713D01*
X56017021Y-54260713D02*
X55921783Y-54308332D01*
X55921783Y-54308332D02*
X55826545Y-54308332D01*
X55826545Y-54308332D02*
X55731307Y-54260713D01*
X55731307Y-54260713D02*
X55683688Y-54213094D01*
X55683688Y-54213094D02*
X55636069Y-54117856D01*
X55636069Y-54117856D02*
X55636069Y-53879761D01*
X55636069Y-53879761D02*
X55683688Y-53736904D01*
X55636069Y-53403570D02*
X56636069Y-53165475D01*
X56636069Y-53165475D02*
X55921783Y-52974999D01*
X55921783Y-52974999D02*
X56636069Y-52784523D01*
X56636069Y-52784523D02*
X55636069Y-52546428D01*
X56636069Y-51641666D02*
X56636069Y-52213094D01*
X56636069Y-51927380D02*
X55636069Y-51927380D01*
X55636069Y-51927380D02*
X55778926Y-52022618D01*
X55778926Y-52022618D02*
X55874164Y-52117856D01*
X55874164Y-52117856D02*
X55921783Y-52213094D01*
X41776247Y-44075309D02*
X41814342Y-43961023D01*
X41814342Y-43961023D02*
X41852438Y-43922928D01*
X41852438Y-43922928D02*
X41928628Y-43884832D01*
X41928628Y-43884832D02*
X42042914Y-43884832D01*
X42042914Y-43884832D02*
X42119104Y-43922928D01*
X42119104Y-43922928D02*
X42157200Y-43961023D01*
X42157200Y-43961023D02*
X42195295Y-44037213D01*
X42195295Y-44037213D02*
X42195295Y-44341975D01*
X42195295Y-44341975D02*
X41395295Y-44341975D01*
X41395295Y-44341975D02*
X41395295Y-44075309D01*
X41395295Y-44075309D02*
X41433390Y-43999118D01*
X41433390Y-43999118D02*
X41471485Y-43961023D01*
X41471485Y-43961023D02*
X41547676Y-43922928D01*
X41547676Y-43922928D02*
X41623866Y-43922928D01*
X41623866Y-43922928D02*
X41700057Y-43961023D01*
X41700057Y-43961023D02*
X41738152Y-43999118D01*
X41738152Y-43999118D02*
X41776247Y-44075309D01*
X41776247Y-44075309D02*
X41776247Y-44341975D01*
X41395295Y-43618166D02*
X41395295Y-43122928D01*
X41395295Y-43122928D02*
X41700057Y-43389594D01*
X41700057Y-43389594D02*
X41700057Y-43275309D01*
X41700057Y-43275309D02*
X41738152Y-43199118D01*
X41738152Y-43199118D02*
X41776247Y-43161023D01*
X41776247Y-43161023D02*
X41852438Y-43122928D01*
X41852438Y-43122928D02*
X42042914Y-43122928D01*
X42042914Y-43122928D02*
X42119104Y-43161023D01*
X42119104Y-43161023D02*
X42157200Y-43199118D01*
X42157200Y-43199118D02*
X42195295Y-43275309D01*
X42195295Y-43275309D02*
X42195295Y-43503880D01*
X42195295Y-43503880D02*
X42157200Y-43580071D01*
X42157200Y-43580071D02*
X42119104Y-43618166D01*
X31616247Y-44018166D02*
X31616247Y-44284832D01*
X32035295Y-44284832D02*
X31235295Y-44284832D01*
X31235295Y-44284832D02*
X31235295Y-43903880D01*
X31235295Y-43218166D02*
X31235295Y-43599118D01*
X31235295Y-43599118D02*
X31616247Y-43637214D01*
X31616247Y-43637214D02*
X31578152Y-43599118D01*
X31578152Y-43599118D02*
X31540057Y-43522928D01*
X31540057Y-43522928D02*
X31540057Y-43332452D01*
X31540057Y-43332452D02*
X31578152Y-43256261D01*
X31578152Y-43256261D02*
X31616247Y-43218166D01*
X31616247Y-43218166D02*
X31692438Y-43180071D01*
X31692438Y-43180071D02*
X31882914Y-43180071D01*
X31882914Y-43180071D02*
X31959104Y-43218166D01*
X31959104Y-43218166D02*
X31997200Y-43256261D01*
X31997200Y-43256261D02*
X32035295Y-43332452D01*
X32035295Y-43332452D02*
X32035295Y-43522928D01*
X32035295Y-43522928D02*
X31997200Y-43599118D01*
X31997200Y-43599118D02*
X31959104Y-43637214D01*
X19335295Y-44303880D02*
X18954342Y-44570547D01*
X19335295Y-44761023D02*
X18535295Y-44761023D01*
X18535295Y-44761023D02*
X18535295Y-44456261D01*
X18535295Y-44456261D02*
X18573390Y-44380071D01*
X18573390Y-44380071D02*
X18611485Y-44341976D01*
X18611485Y-44341976D02*
X18687676Y-44303880D01*
X18687676Y-44303880D02*
X18801961Y-44303880D01*
X18801961Y-44303880D02*
X18878152Y-44341976D01*
X18878152Y-44341976D02*
X18916247Y-44380071D01*
X18916247Y-44380071D02*
X18954342Y-44456261D01*
X18954342Y-44456261D02*
X18954342Y-44761023D01*
X19106723Y-43999119D02*
X19106723Y-43618166D01*
X19335295Y-44075309D02*
X18535295Y-43808642D01*
X18535295Y-43808642D02*
X19335295Y-43541976D01*
X18535295Y-43351500D02*
X19335295Y-43161024D01*
X19335295Y-43161024D02*
X18763866Y-43008643D01*
X18763866Y-43008643D02*
X19335295Y-42856262D01*
X19335295Y-42856262D02*
X18535295Y-42665786D01*
X34156247Y-44018166D02*
X34156247Y-44284832D01*
X34575295Y-44284832D02*
X33775295Y-44284832D01*
X33775295Y-44284832D02*
X33775295Y-43903880D01*
X33775295Y-43256261D02*
X33775295Y-43408642D01*
X33775295Y-43408642D02*
X33813390Y-43484833D01*
X33813390Y-43484833D02*
X33851485Y-43522928D01*
X33851485Y-43522928D02*
X33965771Y-43599118D01*
X33965771Y-43599118D02*
X34118152Y-43637214D01*
X34118152Y-43637214D02*
X34422914Y-43637214D01*
X34422914Y-43637214D02*
X34499104Y-43599118D01*
X34499104Y-43599118D02*
X34537200Y-43561023D01*
X34537200Y-43561023D02*
X34575295Y-43484833D01*
X34575295Y-43484833D02*
X34575295Y-43332452D01*
X34575295Y-43332452D02*
X34537200Y-43256261D01*
X34537200Y-43256261D02*
X34499104Y-43218166D01*
X34499104Y-43218166D02*
X34422914Y-43180071D01*
X34422914Y-43180071D02*
X34232438Y-43180071D01*
X34232438Y-43180071D02*
X34156247Y-43218166D01*
X34156247Y-43218166D02*
X34118152Y-43256261D01*
X34118152Y-43256261D02*
X34080057Y-43332452D01*
X34080057Y-43332452D02*
X34080057Y-43484833D01*
X34080057Y-43484833D02*
X34118152Y-43561023D01*
X34118152Y-43561023D02*
X34156247Y-43599118D01*
X34156247Y-43599118D02*
X34232438Y-43637214D01*
X29495295Y-55263975D02*
X28695295Y-55263975D01*
X28695295Y-55263975D02*
X28695295Y-55073499D01*
X28695295Y-55073499D02*
X28733390Y-54959213D01*
X28733390Y-54959213D02*
X28809580Y-54883023D01*
X28809580Y-54883023D02*
X28885771Y-54844928D01*
X28885771Y-54844928D02*
X29038152Y-54806832D01*
X29038152Y-54806832D02*
X29152438Y-54806832D01*
X29152438Y-54806832D02*
X29304819Y-54844928D01*
X29304819Y-54844928D02*
X29381009Y-54883023D01*
X29381009Y-54883023D02*
X29457200Y-54959213D01*
X29457200Y-54959213D02*
X29495295Y-55073499D01*
X29495295Y-55073499D02*
X29495295Y-55263975D01*
X29495295Y-54044928D02*
X29495295Y-54502071D01*
X29495295Y-54273499D02*
X28695295Y-54273499D01*
X28695295Y-54273499D02*
X28809580Y-54349690D01*
X28809580Y-54349690D02*
X28885771Y-54425880D01*
X28885771Y-54425880D02*
X28923866Y-54502071D01*
X34575295Y-55263975D02*
X33775295Y-55263975D01*
X33775295Y-55263975D02*
X33775295Y-55073499D01*
X33775295Y-55073499D02*
X33813390Y-54959213D01*
X33813390Y-54959213D02*
X33889580Y-54883023D01*
X33889580Y-54883023D02*
X33965771Y-54844928D01*
X33965771Y-54844928D02*
X34118152Y-54806832D01*
X34118152Y-54806832D02*
X34232438Y-54806832D01*
X34232438Y-54806832D02*
X34384819Y-54844928D01*
X34384819Y-54844928D02*
X34461009Y-54883023D01*
X34461009Y-54883023D02*
X34537200Y-54959213D01*
X34537200Y-54959213D02*
X34575295Y-55073499D01*
X34575295Y-55073499D02*
X34575295Y-55263975D01*
X34041961Y-54121118D02*
X34575295Y-54121118D01*
X33737200Y-54311594D02*
X34308628Y-54502071D01*
X34308628Y-54502071D02*
X34308628Y-54006832D01*
X41776247Y-55225880D02*
X41776247Y-54959214D01*
X42195295Y-54844928D02*
X42195295Y-55225880D01*
X42195295Y-55225880D02*
X41395295Y-55225880D01*
X41395295Y-55225880D02*
X41395295Y-54844928D01*
X41395295Y-54159213D02*
X41395295Y-54311594D01*
X41395295Y-54311594D02*
X41433390Y-54387785D01*
X41433390Y-54387785D02*
X41471485Y-54425880D01*
X41471485Y-54425880D02*
X41585771Y-54502070D01*
X41585771Y-54502070D02*
X41738152Y-54540166D01*
X41738152Y-54540166D02*
X42042914Y-54540166D01*
X42042914Y-54540166D02*
X42119104Y-54502070D01*
X42119104Y-54502070D02*
X42157200Y-54463975D01*
X42157200Y-54463975D02*
X42195295Y-54387785D01*
X42195295Y-54387785D02*
X42195295Y-54235404D01*
X42195295Y-54235404D02*
X42157200Y-54159213D01*
X42157200Y-54159213D02*
X42119104Y-54121118D01*
X42119104Y-54121118D02*
X42042914Y-54083023D01*
X42042914Y-54083023D02*
X41852438Y-54083023D01*
X41852438Y-54083023D02*
X41776247Y-54121118D01*
X41776247Y-54121118D02*
X41738152Y-54159213D01*
X41738152Y-54159213D02*
X41700057Y-54235404D01*
X41700057Y-54235404D02*
X41700057Y-54387785D01*
X41700057Y-54387785D02*
X41738152Y-54463975D01*
X41738152Y-54463975D02*
X41776247Y-54502070D01*
X41776247Y-54502070D02*
X41852438Y-54540166D01*
X36696247Y-44018166D02*
X36696247Y-44284832D01*
X37115295Y-44284832D02*
X36315295Y-44284832D01*
X36315295Y-44284832D02*
X36315295Y-43903880D01*
X36315295Y-43675309D02*
X36315295Y-43141975D01*
X36315295Y-43141975D02*
X37115295Y-43484833D01*
X44316247Y-54997309D02*
X44354342Y-54883023D01*
X44354342Y-54883023D02*
X44392438Y-54844928D01*
X44392438Y-54844928D02*
X44468628Y-54806832D01*
X44468628Y-54806832D02*
X44582914Y-54806832D01*
X44582914Y-54806832D02*
X44659104Y-54844928D01*
X44659104Y-54844928D02*
X44697200Y-54883023D01*
X44697200Y-54883023D02*
X44735295Y-54959213D01*
X44735295Y-54959213D02*
X44735295Y-55263975D01*
X44735295Y-55263975D02*
X43935295Y-55263975D01*
X43935295Y-55263975D02*
X43935295Y-54997309D01*
X43935295Y-54997309D02*
X43973390Y-54921118D01*
X43973390Y-54921118D02*
X44011485Y-54883023D01*
X44011485Y-54883023D02*
X44087676Y-54844928D01*
X44087676Y-54844928D02*
X44163866Y-54844928D01*
X44163866Y-54844928D02*
X44240057Y-54883023D01*
X44240057Y-54883023D02*
X44278152Y-54921118D01*
X44278152Y-54921118D02*
X44316247Y-54997309D01*
X44316247Y-54997309D02*
X44316247Y-55263975D01*
X44201961Y-54121118D02*
X44735295Y-54121118D01*
X43897200Y-54311594D02*
X44468628Y-54502071D01*
X44468628Y-54502071D02*
X44468628Y-54006832D01*
X29076247Y-44018166D02*
X29076247Y-44284832D01*
X29495295Y-44284832D02*
X28695295Y-44284832D01*
X28695295Y-44284832D02*
X28695295Y-43903880D01*
X28961961Y-43256261D02*
X29495295Y-43256261D01*
X28657200Y-43446737D02*
X29228628Y-43637214D01*
X29228628Y-43637214D02*
X29228628Y-43141975D01*
X46856247Y-44075309D02*
X46894342Y-43961023D01*
X46894342Y-43961023D02*
X46932438Y-43922928D01*
X46932438Y-43922928D02*
X47008628Y-43884832D01*
X47008628Y-43884832D02*
X47122914Y-43884832D01*
X47122914Y-43884832D02*
X47199104Y-43922928D01*
X47199104Y-43922928D02*
X47237200Y-43961023D01*
X47237200Y-43961023D02*
X47275295Y-44037213D01*
X47275295Y-44037213D02*
X47275295Y-44341975D01*
X47275295Y-44341975D02*
X46475295Y-44341975D01*
X46475295Y-44341975D02*
X46475295Y-44075309D01*
X46475295Y-44075309D02*
X46513390Y-43999118D01*
X46513390Y-43999118D02*
X46551485Y-43961023D01*
X46551485Y-43961023D02*
X46627676Y-43922928D01*
X46627676Y-43922928D02*
X46703866Y-43922928D01*
X46703866Y-43922928D02*
X46780057Y-43961023D01*
X46780057Y-43961023D02*
X46818152Y-43999118D01*
X46818152Y-43999118D02*
X46856247Y-44075309D01*
X46856247Y-44075309D02*
X46856247Y-44341975D01*
X46475295Y-43199118D02*
X46475295Y-43351499D01*
X46475295Y-43351499D02*
X46513390Y-43427690D01*
X46513390Y-43427690D02*
X46551485Y-43465785D01*
X46551485Y-43465785D02*
X46665771Y-43541975D01*
X46665771Y-43541975D02*
X46818152Y-43580071D01*
X46818152Y-43580071D02*
X47122914Y-43580071D01*
X47122914Y-43580071D02*
X47199104Y-43541975D01*
X47199104Y-43541975D02*
X47237200Y-43503880D01*
X47237200Y-43503880D02*
X47275295Y-43427690D01*
X47275295Y-43427690D02*
X47275295Y-43275309D01*
X47275295Y-43275309D02*
X47237200Y-43199118D01*
X47237200Y-43199118D02*
X47199104Y-43161023D01*
X47199104Y-43161023D02*
X47122914Y-43122928D01*
X47122914Y-43122928D02*
X46932438Y-43122928D01*
X46932438Y-43122928D02*
X46856247Y-43161023D01*
X46856247Y-43161023D02*
X46818152Y-43199118D01*
X46818152Y-43199118D02*
X46780057Y-43275309D01*
X46780057Y-43275309D02*
X46780057Y-43427690D01*
X46780057Y-43427690D02*
X46818152Y-43503880D01*
X46818152Y-43503880D02*
X46856247Y-43541975D01*
X46856247Y-43541975D02*
X46932438Y-43580071D01*
X44316247Y-44075309D02*
X44354342Y-43961023D01*
X44354342Y-43961023D02*
X44392438Y-43922928D01*
X44392438Y-43922928D02*
X44468628Y-43884832D01*
X44468628Y-43884832D02*
X44582914Y-43884832D01*
X44582914Y-43884832D02*
X44659104Y-43922928D01*
X44659104Y-43922928D02*
X44697200Y-43961023D01*
X44697200Y-43961023D02*
X44735295Y-44037213D01*
X44735295Y-44037213D02*
X44735295Y-44341975D01*
X44735295Y-44341975D02*
X43935295Y-44341975D01*
X43935295Y-44341975D02*
X43935295Y-44075309D01*
X43935295Y-44075309D02*
X43973390Y-43999118D01*
X43973390Y-43999118D02*
X44011485Y-43961023D01*
X44011485Y-43961023D02*
X44087676Y-43922928D01*
X44087676Y-43922928D02*
X44163866Y-43922928D01*
X44163866Y-43922928D02*
X44240057Y-43961023D01*
X44240057Y-43961023D02*
X44278152Y-43999118D01*
X44278152Y-43999118D02*
X44316247Y-44075309D01*
X44316247Y-44075309D02*
X44316247Y-44341975D01*
X44011485Y-43580071D02*
X43973390Y-43541975D01*
X43973390Y-43541975D02*
X43935295Y-43465785D01*
X43935295Y-43465785D02*
X43935295Y-43275309D01*
X43935295Y-43275309D02*
X43973390Y-43199118D01*
X43973390Y-43199118D02*
X44011485Y-43161023D01*
X44011485Y-43161023D02*
X44087676Y-43122928D01*
X44087676Y-43122928D02*
X44163866Y-43122928D01*
X44163866Y-43122928D02*
X44278152Y-43161023D01*
X44278152Y-43161023D02*
X44735295Y-43618166D01*
X44735295Y-43618166D02*
X44735295Y-43122928D01*
X26155295Y-44818166D02*
X26955295Y-44551499D01*
X26955295Y-44551499D02*
X26155295Y-44284833D01*
X26879104Y-43561023D02*
X26917200Y-43599119D01*
X26917200Y-43599119D02*
X26955295Y-43713404D01*
X26955295Y-43713404D02*
X26955295Y-43789595D01*
X26955295Y-43789595D02*
X26917200Y-43903881D01*
X26917200Y-43903881D02*
X26841009Y-43980071D01*
X26841009Y-43980071D02*
X26764819Y-44018166D01*
X26764819Y-44018166D02*
X26612438Y-44056262D01*
X26612438Y-44056262D02*
X26498152Y-44056262D01*
X26498152Y-44056262D02*
X26345771Y-44018166D01*
X26345771Y-44018166D02*
X26269580Y-43980071D01*
X26269580Y-43980071D02*
X26193390Y-43903881D01*
X26193390Y-43903881D02*
X26155295Y-43789595D01*
X26155295Y-43789595D02*
X26155295Y-43713404D01*
X26155295Y-43713404D02*
X26193390Y-43599119D01*
X26193390Y-43599119D02*
X26231485Y-43561023D01*
X26879104Y-42761023D02*
X26917200Y-42799119D01*
X26917200Y-42799119D02*
X26955295Y-42913404D01*
X26955295Y-42913404D02*
X26955295Y-42989595D01*
X26955295Y-42989595D02*
X26917200Y-43103881D01*
X26917200Y-43103881D02*
X26841009Y-43180071D01*
X26841009Y-43180071D02*
X26764819Y-43218166D01*
X26764819Y-43218166D02*
X26612438Y-43256262D01*
X26612438Y-43256262D02*
X26498152Y-43256262D01*
X26498152Y-43256262D02*
X26345771Y-43218166D01*
X26345771Y-43218166D02*
X26269580Y-43180071D01*
X26269580Y-43180071D02*
X26193390Y-43103881D01*
X26193390Y-43103881D02*
X26155295Y-42989595D01*
X26155295Y-42989595D02*
X26155295Y-42913404D01*
X26155295Y-42913404D02*
X26193390Y-42799119D01*
X26193390Y-42799119D02*
X26231485Y-42761023D01*
X23653390Y-55283023D02*
X23615295Y-55359213D01*
X23615295Y-55359213D02*
X23615295Y-55473499D01*
X23615295Y-55473499D02*
X23653390Y-55587785D01*
X23653390Y-55587785D02*
X23729580Y-55663975D01*
X23729580Y-55663975D02*
X23805771Y-55702070D01*
X23805771Y-55702070D02*
X23958152Y-55740166D01*
X23958152Y-55740166D02*
X24072438Y-55740166D01*
X24072438Y-55740166D02*
X24224819Y-55702070D01*
X24224819Y-55702070D02*
X24301009Y-55663975D01*
X24301009Y-55663975D02*
X24377200Y-55587785D01*
X24377200Y-55587785D02*
X24415295Y-55473499D01*
X24415295Y-55473499D02*
X24415295Y-55397308D01*
X24415295Y-55397308D02*
X24377200Y-55283023D01*
X24377200Y-55283023D02*
X24339104Y-55244927D01*
X24339104Y-55244927D02*
X24072438Y-55244927D01*
X24072438Y-55244927D02*
X24072438Y-55397308D01*
X24415295Y-54902070D02*
X23615295Y-54902070D01*
X23615295Y-54902070D02*
X24415295Y-54444927D01*
X24415295Y-54444927D02*
X23615295Y-54444927D01*
X24415295Y-54063975D02*
X23615295Y-54063975D01*
X23615295Y-54063975D02*
X23615295Y-53873499D01*
X23615295Y-53873499D02*
X23653390Y-53759213D01*
X23653390Y-53759213D02*
X23729580Y-53683023D01*
X23729580Y-53683023D02*
X23805771Y-53644928D01*
X23805771Y-53644928D02*
X23958152Y-53606832D01*
X23958152Y-53606832D02*
X24072438Y-53606832D01*
X24072438Y-53606832D02*
X24224819Y-53644928D01*
X24224819Y-53644928D02*
X24301009Y-53683023D01*
X24301009Y-53683023D02*
X24377200Y-53759213D01*
X24377200Y-53759213D02*
X24415295Y-53873499D01*
X24415295Y-53873499D02*
X24415295Y-54063975D01*
X39655295Y-55263975D02*
X38855295Y-55263975D01*
X38855295Y-55263975D02*
X38855295Y-55073499D01*
X38855295Y-55073499D02*
X38893390Y-54959213D01*
X38893390Y-54959213D02*
X38969580Y-54883023D01*
X38969580Y-54883023D02*
X39045771Y-54844928D01*
X39045771Y-54844928D02*
X39198152Y-54806832D01*
X39198152Y-54806832D02*
X39312438Y-54806832D01*
X39312438Y-54806832D02*
X39464819Y-54844928D01*
X39464819Y-54844928D02*
X39541009Y-54883023D01*
X39541009Y-54883023D02*
X39617200Y-54959213D01*
X39617200Y-54959213D02*
X39655295Y-55073499D01*
X39655295Y-55073499D02*
X39655295Y-55263975D01*
X38855295Y-54540166D02*
X38855295Y-54006832D01*
X38855295Y-54006832D02*
X39655295Y-54349690D01*
X24347200Y-44012713D02*
X24385295Y-43898427D01*
X24385295Y-43898427D02*
X24385295Y-43707951D01*
X24385295Y-43707951D02*
X24347200Y-43631760D01*
X24347200Y-43631760D02*
X24309104Y-43593665D01*
X24309104Y-43593665D02*
X24232914Y-43555570D01*
X24232914Y-43555570D02*
X24156723Y-43555570D01*
X24156723Y-43555570D02*
X24080533Y-43593665D01*
X24080533Y-43593665D02*
X24042438Y-43631760D01*
X24042438Y-43631760D02*
X24004342Y-43707951D01*
X24004342Y-43707951D02*
X23966247Y-43860332D01*
X23966247Y-43860332D02*
X23928152Y-43936522D01*
X23928152Y-43936522D02*
X23890057Y-43974617D01*
X23890057Y-43974617D02*
X23813866Y-44012713D01*
X23813866Y-44012713D02*
X23737676Y-44012713D01*
X23737676Y-44012713D02*
X23661485Y-43974617D01*
X23661485Y-43974617D02*
X23623390Y-43936522D01*
X23623390Y-43936522D02*
X23585295Y-43860332D01*
X23585295Y-43860332D02*
X23585295Y-43669855D01*
X23585295Y-43669855D02*
X23623390Y-43555570D01*
X23585295Y-43326998D02*
X23585295Y-42869855D01*
X24385295Y-43098427D02*
X23585295Y-43098427D01*
X39236247Y-44075309D02*
X39274342Y-43961023D01*
X39274342Y-43961023D02*
X39312438Y-43922928D01*
X39312438Y-43922928D02*
X39388628Y-43884832D01*
X39388628Y-43884832D02*
X39502914Y-43884832D01*
X39502914Y-43884832D02*
X39579104Y-43922928D01*
X39579104Y-43922928D02*
X39617200Y-43961023D01*
X39617200Y-43961023D02*
X39655295Y-44037213D01*
X39655295Y-44037213D02*
X39655295Y-44341975D01*
X39655295Y-44341975D02*
X38855295Y-44341975D01*
X38855295Y-44341975D02*
X38855295Y-44075309D01*
X38855295Y-44075309D02*
X38893390Y-43999118D01*
X38893390Y-43999118D02*
X38931485Y-43961023D01*
X38931485Y-43961023D02*
X39007676Y-43922928D01*
X39007676Y-43922928D02*
X39083866Y-43922928D01*
X39083866Y-43922928D02*
X39160057Y-43961023D01*
X39160057Y-43961023D02*
X39198152Y-43999118D01*
X39198152Y-43999118D02*
X39236247Y-44075309D01*
X39236247Y-44075309D02*
X39236247Y-44341975D01*
X39655295Y-43122928D02*
X39655295Y-43580071D01*
X39655295Y-43351499D02*
X38855295Y-43351499D01*
X38855295Y-43351499D02*
X38969580Y-43427690D01*
X38969580Y-43427690D02*
X39045771Y-43503880D01*
X39045771Y-43503880D02*
X39083866Y-43580071D01*
X21875295Y-55263975D02*
X21075295Y-55263975D01*
X21075295Y-55263975D02*
X21075295Y-55073499D01*
X21075295Y-55073499D02*
X21113390Y-54959213D01*
X21113390Y-54959213D02*
X21189580Y-54883023D01*
X21189580Y-54883023D02*
X21265771Y-54844928D01*
X21265771Y-54844928D02*
X21418152Y-54806832D01*
X21418152Y-54806832D02*
X21532438Y-54806832D01*
X21532438Y-54806832D02*
X21684819Y-54844928D01*
X21684819Y-54844928D02*
X21761009Y-54883023D01*
X21761009Y-54883023D02*
X21837200Y-54959213D01*
X21837200Y-54959213D02*
X21875295Y-55073499D01*
X21875295Y-55073499D02*
X21875295Y-55263975D01*
X21151485Y-54502071D02*
X21113390Y-54463975D01*
X21113390Y-54463975D02*
X21075295Y-54387785D01*
X21075295Y-54387785D02*
X21075295Y-54197309D01*
X21075295Y-54197309D02*
X21113390Y-54121118D01*
X21113390Y-54121118D02*
X21151485Y-54083023D01*
X21151485Y-54083023D02*
X21227676Y-54044928D01*
X21227676Y-54044928D02*
X21303866Y-54044928D01*
X21303866Y-54044928D02*
X21418152Y-54083023D01*
X21418152Y-54083023D02*
X21875295Y-54540166D01*
X21875295Y-54540166D02*
X21875295Y-54044928D01*
X32035295Y-55263975D02*
X31235295Y-55263975D01*
X31235295Y-55263975D02*
X31235295Y-55073499D01*
X31235295Y-55073499D02*
X31273390Y-54959213D01*
X31273390Y-54959213D02*
X31349580Y-54883023D01*
X31349580Y-54883023D02*
X31425771Y-54844928D01*
X31425771Y-54844928D02*
X31578152Y-54806832D01*
X31578152Y-54806832D02*
X31692438Y-54806832D01*
X31692438Y-54806832D02*
X31844819Y-54844928D01*
X31844819Y-54844928D02*
X31921009Y-54883023D01*
X31921009Y-54883023D02*
X31997200Y-54959213D01*
X31997200Y-54959213D02*
X32035295Y-55073499D01*
X32035295Y-55073499D02*
X32035295Y-55263975D01*
X31235295Y-54311594D02*
X31235295Y-54235404D01*
X31235295Y-54235404D02*
X31273390Y-54159213D01*
X31273390Y-54159213D02*
X31311485Y-54121118D01*
X31311485Y-54121118D02*
X31387676Y-54083023D01*
X31387676Y-54083023D02*
X31540057Y-54044928D01*
X31540057Y-54044928D02*
X31730533Y-54044928D01*
X31730533Y-54044928D02*
X31882914Y-54083023D01*
X31882914Y-54083023D02*
X31959104Y-54121118D01*
X31959104Y-54121118D02*
X31997200Y-54159213D01*
X31997200Y-54159213D02*
X32035295Y-54235404D01*
X32035295Y-54235404D02*
X32035295Y-54311594D01*
X32035295Y-54311594D02*
X31997200Y-54387785D01*
X31997200Y-54387785D02*
X31959104Y-54425880D01*
X31959104Y-54425880D02*
X31882914Y-54463975D01*
X31882914Y-54463975D02*
X31730533Y-54502071D01*
X31730533Y-54502071D02*
X31540057Y-54502071D01*
X31540057Y-54502071D02*
X31387676Y-54463975D01*
X31387676Y-54463975D02*
X31311485Y-54425880D01*
X31311485Y-54425880D02*
X31273390Y-54387785D01*
X31273390Y-54387785D02*
X31235295Y-54311594D01*
X37039104Y-54806832D02*
X37077200Y-54844928D01*
X37077200Y-54844928D02*
X37115295Y-54959213D01*
X37115295Y-54959213D02*
X37115295Y-55035404D01*
X37115295Y-55035404D02*
X37077200Y-55149690D01*
X37077200Y-55149690D02*
X37001009Y-55225880D01*
X37001009Y-55225880D02*
X36924819Y-55263975D01*
X36924819Y-55263975D02*
X36772438Y-55302071D01*
X36772438Y-55302071D02*
X36658152Y-55302071D01*
X36658152Y-55302071D02*
X36505771Y-55263975D01*
X36505771Y-55263975D02*
X36429580Y-55225880D01*
X36429580Y-55225880D02*
X36353390Y-55149690D01*
X36353390Y-55149690D02*
X36315295Y-55035404D01*
X36315295Y-55035404D02*
X36315295Y-54959213D01*
X36315295Y-54959213D02*
X36353390Y-54844928D01*
X36353390Y-54844928D02*
X36391485Y-54806832D01*
X36315295Y-54121118D02*
X36315295Y-54273499D01*
X36315295Y-54273499D02*
X36353390Y-54349690D01*
X36353390Y-54349690D02*
X36391485Y-54387785D01*
X36391485Y-54387785D02*
X36505771Y-54463975D01*
X36505771Y-54463975D02*
X36658152Y-54502071D01*
X36658152Y-54502071D02*
X36962914Y-54502071D01*
X36962914Y-54502071D02*
X37039104Y-54463975D01*
X37039104Y-54463975D02*
X37077200Y-54425880D01*
X37077200Y-54425880D02*
X37115295Y-54349690D01*
X37115295Y-54349690D02*
X37115295Y-54197309D01*
X37115295Y-54197309D02*
X37077200Y-54121118D01*
X37077200Y-54121118D02*
X37039104Y-54083023D01*
X37039104Y-54083023D02*
X36962914Y-54044928D01*
X36962914Y-54044928D02*
X36772438Y-54044928D01*
X36772438Y-54044928D02*
X36696247Y-54083023D01*
X36696247Y-54083023D02*
X36658152Y-54121118D01*
X36658152Y-54121118D02*
X36620057Y-54197309D01*
X36620057Y-54197309D02*
X36620057Y-54349690D01*
X36620057Y-54349690D02*
X36658152Y-54425880D01*
X36658152Y-54425880D02*
X36696247Y-54463975D01*
X36696247Y-54463975D02*
X36772438Y-54502071D01*
X18535295Y-54974848D02*
X18535295Y-54517705D01*
X19335295Y-54746277D02*
X18535295Y-54746277D01*
X18535295Y-54327229D02*
X19335295Y-53793895D01*
X18535295Y-53793895D02*
X19335295Y-54327229D01*
X18535295Y-53336752D02*
X18535295Y-53260562D01*
X18535295Y-53260562D02*
X18573390Y-53184371D01*
X18573390Y-53184371D02*
X18611485Y-53146276D01*
X18611485Y-53146276D02*
X18687676Y-53108181D01*
X18687676Y-53108181D02*
X18840057Y-53070086D01*
X18840057Y-53070086D02*
X19030533Y-53070086D01*
X19030533Y-53070086D02*
X19182914Y-53108181D01*
X19182914Y-53108181D02*
X19259104Y-53146276D01*
X19259104Y-53146276D02*
X19297200Y-53184371D01*
X19297200Y-53184371D02*
X19335295Y-53260562D01*
X19335295Y-53260562D02*
X19335295Y-53336752D01*
X19335295Y-53336752D02*
X19297200Y-53412943D01*
X19297200Y-53412943D02*
X19259104Y-53451038D01*
X19259104Y-53451038D02*
X19182914Y-53489133D01*
X19182914Y-53489133D02*
X19030533Y-53527229D01*
X19030533Y-53527229D02*
X18840057Y-53527229D01*
X18840057Y-53527229D02*
X18687676Y-53489133D01*
X18687676Y-53489133D02*
X18611485Y-53451038D01*
X18611485Y-53451038D02*
X18573390Y-53412943D01*
X18573390Y-53412943D02*
X18535295Y-53336752D01*
X18497200Y-52155800D02*
X19525771Y-52841514D01*
X19335295Y-51889133D02*
X18535295Y-51889133D01*
X18535295Y-51889133D02*
X18535295Y-51698657D01*
X18535295Y-51698657D02*
X18573390Y-51584371D01*
X18573390Y-51584371D02*
X18649580Y-51508181D01*
X18649580Y-51508181D02*
X18725771Y-51470086D01*
X18725771Y-51470086D02*
X18878152Y-51431990D01*
X18878152Y-51431990D02*
X18992438Y-51431990D01*
X18992438Y-51431990D02*
X19144819Y-51470086D01*
X19144819Y-51470086D02*
X19221009Y-51508181D01*
X19221009Y-51508181D02*
X19297200Y-51584371D01*
X19297200Y-51584371D02*
X19335295Y-51698657D01*
X19335295Y-51698657D02*
X19335295Y-51889133D01*
X18535295Y-51165324D02*
X18535295Y-50670086D01*
X18535295Y-50670086D02*
X18840057Y-50936752D01*
X18840057Y-50936752D02*
X18840057Y-50822467D01*
X18840057Y-50822467D02*
X18878152Y-50746276D01*
X18878152Y-50746276D02*
X18916247Y-50708181D01*
X18916247Y-50708181D02*
X18992438Y-50670086D01*
X18992438Y-50670086D02*
X19182914Y-50670086D01*
X19182914Y-50670086D02*
X19259104Y-50708181D01*
X19259104Y-50708181D02*
X19297200Y-50746276D01*
X19297200Y-50746276D02*
X19335295Y-50822467D01*
X19335295Y-50822467D02*
X19335295Y-51051038D01*
X19335295Y-51051038D02*
X19297200Y-51127229D01*
X19297200Y-51127229D02*
X19259104Y-51165324D01*
X46856247Y-54997309D02*
X46894342Y-54883023D01*
X46894342Y-54883023D02*
X46932438Y-54844928D01*
X46932438Y-54844928D02*
X47008628Y-54806832D01*
X47008628Y-54806832D02*
X47122914Y-54806832D01*
X47122914Y-54806832D02*
X47199104Y-54844928D01*
X47199104Y-54844928D02*
X47237200Y-54883023D01*
X47237200Y-54883023D02*
X47275295Y-54959213D01*
X47275295Y-54959213D02*
X47275295Y-55263975D01*
X47275295Y-55263975D02*
X46475295Y-55263975D01*
X46475295Y-55263975D02*
X46475295Y-54997309D01*
X46475295Y-54997309D02*
X46513390Y-54921118D01*
X46513390Y-54921118D02*
X46551485Y-54883023D01*
X46551485Y-54883023D02*
X46627676Y-54844928D01*
X46627676Y-54844928D02*
X46703866Y-54844928D01*
X46703866Y-54844928D02*
X46780057Y-54883023D01*
X46780057Y-54883023D02*
X46818152Y-54921118D01*
X46818152Y-54921118D02*
X46856247Y-54997309D01*
X46856247Y-54997309D02*
X46856247Y-55263975D01*
X46475295Y-54083023D02*
X46475295Y-54463975D01*
X46475295Y-54463975D02*
X46856247Y-54502071D01*
X46856247Y-54502071D02*
X46818152Y-54463975D01*
X46818152Y-54463975D02*
X46780057Y-54387785D01*
X46780057Y-54387785D02*
X46780057Y-54197309D01*
X46780057Y-54197309D02*
X46818152Y-54121118D01*
X46818152Y-54121118D02*
X46856247Y-54083023D01*
X46856247Y-54083023D02*
X46932438Y-54044928D01*
X46932438Y-54044928D02*
X47122914Y-54044928D01*
X47122914Y-54044928D02*
X47199104Y-54083023D01*
X47199104Y-54083023D02*
X47237200Y-54121118D01*
X47237200Y-54121118D02*
X47275295Y-54197309D01*
X47275295Y-54197309D02*
X47275295Y-54387785D01*
X47275295Y-54387785D02*
X47237200Y-54463975D01*
X47237200Y-54463975D02*
X47199104Y-54502071D01*
X26193390Y-55283023D02*
X26155295Y-55359213D01*
X26155295Y-55359213D02*
X26155295Y-55473499D01*
X26155295Y-55473499D02*
X26193390Y-55587785D01*
X26193390Y-55587785D02*
X26269580Y-55663975D01*
X26269580Y-55663975D02*
X26345771Y-55702070D01*
X26345771Y-55702070D02*
X26498152Y-55740166D01*
X26498152Y-55740166D02*
X26612438Y-55740166D01*
X26612438Y-55740166D02*
X26764819Y-55702070D01*
X26764819Y-55702070D02*
X26841009Y-55663975D01*
X26841009Y-55663975D02*
X26917200Y-55587785D01*
X26917200Y-55587785D02*
X26955295Y-55473499D01*
X26955295Y-55473499D02*
X26955295Y-55397308D01*
X26955295Y-55397308D02*
X26917200Y-55283023D01*
X26917200Y-55283023D02*
X26879104Y-55244927D01*
X26879104Y-55244927D02*
X26612438Y-55244927D01*
X26612438Y-55244927D02*
X26612438Y-55397308D01*
X26955295Y-54902070D02*
X26155295Y-54902070D01*
X26155295Y-54902070D02*
X26955295Y-54444927D01*
X26955295Y-54444927D02*
X26155295Y-54444927D01*
X26955295Y-54063975D02*
X26155295Y-54063975D01*
X26155295Y-54063975D02*
X26155295Y-53873499D01*
X26155295Y-53873499D02*
X26193390Y-53759213D01*
X26193390Y-53759213D02*
X26269580Y-53683023D01*
X26269580Y-53683023D02*
X26345771Y-53644928D01*
X26345771Y-53644928D02*
X26498152Y-53606832D01*
X26498152Y-53606832D02*
X26612438Y-53606832D01*
X26612438Y-53606832D02*
X26764819Y-53644928D01*
X26764819Y-53644928D02*
X26841009Y-53683023D01*
X26841009Y-53683023D02*
X26917200Y-53759213D01*
X26917200Y-53759213D02*
X26955295Y-53873499D01*
X26955295Y-53873499D02*
X26955295Y-54063975D01*
X21113390Y-44361023D02*
X21075295Y-44437213D01*
X21075295Y-44437213D02*
X21075295Y-44551499D01*
X21075295Y-44551499D02*
X21113390Y-44665785D01*
X21113390Y-44665785D02*
X21189580Y-44741975D01*
X21189580Y-44741975D02*
X21265771Y-44780070D01*
X21265771Y-44780070D02*
X21418152Y-44818166D01*
X21418152Y-44818166D02*
X21532438Y-44818166D01*
X21532438Y-44818166D02*
X21684819Y-44780070D01*
X21684819Y-44780070D02*
X21761009Y-44741975D01*
X21761009Y-44741975D02*
X21837200Y-44665785D01*
X21837200Y-44665785D02*
X21875295Y-44551499D01*
X21875295Y-44551499D02*
X21875295Y-44475308D01*
X21875295Y-44475308D02*
X21837200Y-44361023D01*
X21837200Y-44361023D02*
X21799104Y-44322927D01*
X21799104Y-44322927D02*
X21532438Y-44322927D01*
X21532438Y-44322927D02*
X21532438Y-44475308D01*
X21875295Y-43980070D02*
X21075295Y-43980070D01*
X21075295Y-43980070D02*
X21875295Y-43522927D01*
X21875295Y-43522927D02*
X21075295Y-43522927D01*
X21875295Y-43141975D02*
X21075295Y-43141975D01*
X21075295Y-43141975D02*
X21075295Y-42951499D01*
X21075295Y-42951499D02*
X21113390Y-42837213D01*
X21113390Y-42837213D02*
X21189580Y-42761023D01*
X21189580Y-42761023D02*
X21265771Y-42722928D01*
X21265771Y-42722928D02*
X21418152Y-42684832D01*
X21418152Y-42684832D02*
X21532438Y-42684832D01*
X21532438Y-42684832D02*
X21684819Y-42722928D01*
X21684819Y-42722928D02*
X21761009Y-42761023D01*
X21761009Y-42761023D02*
X21837200Y-42837213D01*
X21837200Y-42837213D02*
X21875295Y-42951499D01*
X21875295Y-42951499D02*
X21875295Y-43141975D01*
X18716666Y-35586069D02*
X18716666Y-36300354D01*
X18716666Y-36300354D02*
X18669047Y-36443211D01*
X18669047Y-36443211D02*
X18573809Y-36538450D01*
X18573809Y-36538450D02*
X18430952Y-36586069D01*
X18430952Y-36586069D02*
X18335714Y-36586069D01*
X19716666Y-36586069D02*
X19145238Y-36586069D01*
X19430952Y-36586069D02*
X19430952Y-35586069D01*
X19430952Y-35586069D02*
X19335714Y-35728926D01*
X19335714Y-35728926D02*
X19240476Y-35824164D01*
X19240476Y-35824164D02*
X19145238Y-35871783D01*
D11*
%TO.C,R2*%
X63802500Y-31082500D02*
X67642500Y-31082500D01*
X63802500Y-29242500D02*
X67642500Y-29242500D01*
%TO.C,R1*%
X63802500Y-27932500D02*
X67642500Y-27932500D01*
X63802500Y-26092500D02*
X67642500Y-26092500D01*
%TO.C,Brd1*%
X31843750Y-16275000D02*
X59243750Y-16275000D01*
X31843750Y-43575000D02*
X31843750Y-16275000D01*
X32265750Y-19570000D02*
X55365750Y-19570000D01*
X32265750Y-36170000D02*
X32265750Y-19570000D01*
X40544750Y-16764000D02*
X40544750Y-19177000D01*
X40544750Y-16764000D02*
X50323750Y-16764000D01*
X50323750Y-16764000D02*
X50323750Y-19177000D01*
X50323750Y-19177000D02*
X40544750Y-19177000D01*
X55365750Y-19570000D02*
X58451750Y-19570000D01*
X55365750Y-36170000D02*
X32265750Y-36170000D01*
X55365750Y-36170000D02*
X58705750Y-36195000D01*
X58705750Y-19558000D02*
X58451750Y-19570000D01*
X58705750Y-36195000D02*
X58705750Y-19558000D01*
X59243750Y-16275000D02*
X59243750Y-43575000D01*
X59243750Y-43575000D02*
X31843750Y-43575000D01*
%TO.C,SW1*%
X59281250Y-56075000D02*
X59281250Y-55475000D01*
X59581250Y-55775000D02*
X59281250Y-56075000D01*
X59281250Y-55475000D02*
X59581250Y-55775000D01*
X57481250Y-54375000D02*
X69281250Y-54375000D01*
X57481250Y-50275000D02*
X57481250Y-54375000D01*
X69281250Y-50275000D02*
X69281250Y-54375000D01*
X63381250Y-48775000D02*
X63381250Y-47775000D01*
X62881250Y-48275000D02*
X63881250Y-48275000D01*
X57481250Y-46275000D02*
X57481250Y-42175000D01*
X57481250Y-42175000D02*
X59881250Y-42175000D01*
X62081250Y-42175000D02*
X64681250Y-42175000D01*
X66881250Y-42175000D02*
X69281250Y-42175000D01*
X69281250Y-42175000D02*
X69281250Y-46275000D01*
X66381250Y-48275000D02*
G75*
G03*
X60381250Y-48275000I-3000000J0D01*
G01*
X60381250Y-48275000D02*
G75*
G03*
X66381250Y-48275000I3000000J0D01*
G01*
D12*
%TO.C,U1*%
X15163000Y-40322500D02*
X15163000Y-58102500D01*
X15163000Y-58102500D02*
X17703000Y-58102500D01*
X17703000Y-40322500D02*
X15163000Y-40322500D01*
X17703000Y-55562500D02*
X17703000Y-58102500D01*
X17703000Y-55562500D02*
X20243000Y-55562500D01*
X17703000Y-58102500D02*
X48183000Y-58102500D01*
X20243000Y-55562500D02*
X20243000Y-58102500D01*
X48183000Y-40322500D02*
X17703000Y-40322500D01*
X48183000Y-58102500D02*
X48183000Y-40322500D01*
D10*
X23682360Y-44780932D02*
X23582360Y-44780932D01*
X23582360Y-44280932D01*
X23682360Y-44280932D01*
X23682360Y-44780932D01*
G36*
X23682360Y-44780932D02*
G01*
X23582360Y-44780932D01*
X23582360Y-44280932D01*
X23682360Y-44280932D01*
X23682360Y-44780932D01*
G37*
X23882360Y-44380932D02*
X23582360Y-44380932D01*
X23582360Y-44280932D01*
X23882360Y-44280932D01*
X23882360Y-44380932D01*
G36*
X23882360Y-44380932D02*
G01*
X23582360Y-44380932D01*
X23582360Y-44280932D01*
X23882360Y-44280932D01*
X23882360Y-44380932D01*
G37*
X24382360Y-44780932D02*
X23582360Y-44780932D01*
X23582360Y-44680932D01*
X24382360Y-44680932D01*
X24382360Y-44780932D01*
G36*
X24382360Y-44780932D02*
G01*
X23582360Y-44780932D01*
X23582360Y-44680932D01*
X24382360Y-44680932D01*
X24382360Y-44780932D01*
G37*
X24082360Y-44580932D02*
X23982360Y-44580932D01*
X23982360Y-44480932D01*
X24082360Y-44480932D01*
X24082360Y-44580932D01*
G36*
X24082360Y-44580932D02*
G01*
X23982360Y-44580932D01*
X23982360Y-44480932D01*
X24082360Y-44480932D01*
X24082360Y-44580932D01*
G37*
X24382360Y-44380932D02*
X24182360Y-44380932D01*
X24182360Y-44280932D01*
X24382360Y-44280932D01*
X24382360Y-44380932D01*
G36*
X24382360Y-44380932D02*
G01*
X24182360Y-44380932D01*
X24182360Y-44280932D01*
X24382360Y-44280932D01*
X24382360Y-44380932D01*
G37*
D11*
%TO.C,J1*%
X21110000Y-35316250D02*
X20425000Y-35316250D01*
X21110000Y-34631250D02*
X21110000Y-35316250D01*
X19740000Y-35191250D02*
X19115000Y-35191250D01*
X19740000Y-34131250D02*
X19115000Y-34131250D01*
X19115000Y-35191250D02*
X19115000Y-33071250D01*
X19115000Y-34841250D02*
X17115000Y-34841250D01*
X19115000Y-34781250D02*
X17115000Y-34781250D01*
X19115000Y-34661250D02*
X17115000Y-34661250D01*
X19115000Y-34541250D02*
X17115000Y-34541250D01*
X19115000Y-33841250D02*
X17115000Y-33841250D01*
X19115000Y-33071250D02*
X20030507Y-33071250D01*
X17115000Y-34841250D02*
X17115000Y-34421250D01*
X17115000Y-34421250D02*
X19115000Y-34421250D01*
X17115000Y-33841250D02*
X17115000Y-33421250D01*
X17115000Y-33421250D02*
X19115000Y-33421250D01*
%TD*%
D13*
%TO.C,U1*%
X18973000Y-56832500D03*
D14*
X21513000Y-56832500D03*
X24053000Y-56832500D03*
X26593000Y-56832500D03*
X29133000Y-56832500D03*
X31673000Y-56832500D03*
X34213000Y-56832500D03*
X36753000Y-56832500D03*
X39293000Y-56832500D03*
X41833000Y-56832500D03*
X44373000Y-56832500D03*
X46913000Y-56832500D03*
X46913000Y-41592500D03*
X44373000Y-41592500D03*
X41833000Y-41592500D03*
X39293000Y-41592500D03*
X36753000Y-41592500D03*
X34213000Y-41592500D03*
X31673000Y-41592500D03*
X29133000Y-41592500D03*
X26593000Y-41592500D03*
X24053000Y-41592500D03*
X21513000Y-41592500D03*
X18973000Y-41592500D03*
%TD*%
M02*
