M48
; DRILL file {KiCad 7.0.10} date Sun Apr 28 13:53:34 2024
; FORMAT={-:-/ absolute / inch / decimal}
; #@! TF.CreationDate,2024-04-28T13:53:34+05:00
; #@! TF.GenerationSoftware,Kicad,Pcbnew,7.0.10
; #@! TF.FileFunction,Plated,1,2,PTH
FMAT,2
INCH
; #@! TA.AperFunction,Plated,PTH,ViaDrill
T1C0.0157
; #@! TA.AperFunction,Plated,PTH,ComponentDrill
T2C0.0197
; #@! TA.AperFunction,Plated,PTH,ComponentDrill
T3C0.0276
; #@! TA.AperFunction,Plated,PTH,ComponentDrill
T4C0.0394
; #@! TA.AperFunction,Plated,PTH,ComponentDrill
T5C0.0430
; #@! TA.AperFunction,Plated,PTH,ComponentDrill
T6C0.0591
; #@! TA.AperFunction,Plated,PTH,ComponentDrill
T7C0.1181
%
G90
G05
T1
X1.2812Y-3.0312
X1.2812Y-3.0312
X1.2812Y-3.7812
X1.2812Y-4.5312
X1.7812Y-3.0312
X1.7812Y-3.7812
X1.8438Y-4.5312
X1.875Y-1.125
X1.875Y-1.2812
X2.5312Y-3.7812
X2.5625Y-3.0312
X2.5938Y-4.5312
T2
X0.8041Y-1.3241
X0.8041Y-1.3634
T3
X2.4875Y-1.0635
X2.4875Y-1.1875
X2.6875Y-1.0635
X2.6875Y-1.1875
T4
X1.6387Y-0.7077
X1.7387Y-0.7077
X1.8387Y-0.7077
X1.9387Y-0.7077
X2.3969Y-1.625
X2.3969Y-2.1959
X2.4953Y-2.1959
X2.5938Y-1.625
X2.5938Y-2.1959
T5
X0.747Y-1.6375
X0.747Y-2.2375
X0.847Y-1.6375
X0.847Y-2.2375
X0.947Y-1.6375
X0.947Y-2.2375
X1.047Y-1.6375
X1.047Y-2.2375
X1.147Y-1.6375
X1.147Y-2.2375
X1.247Y-1.6375
X1.247Y-2.2375
X1.347Y-1.6375
X1.347Y-2.2375
X1.447Y-1.6375
X1.447Y-2.2375
X1.547Y-1.6375
X1.547Y-2.2375
X1.647Y-1.6375
X1.647Y-2.2375
X1.747Y-1.6375
X1.747Y-2.2375
X1.847Y-1.6375
X1.847Y-2.2375
T7
X0.9125Y-2.7125
X0.9125Y-3.4625
X0.9125Y-4.2125
X1.1625Y-2.6125
X1.1625Y-3.3625
X1.1625Y-4.1125
X1.6625Y-2.7125
X1.6625Y-3.4625
X1.6625Y-4.2125
X1.9125Y-2.6125
X1.9125Y-3.3625
X1.9125Y-4.1125
X2.4125Y-2.7125
X2.4125Y-3.4625
X2.4125Y-4.2125
X2.6625Y-2.6125
X2.6625Y-3.3625
X2.6625Y-4.1125
T6
G00X2.2749Y-1.9262
M15
G01X2.2749Y-1.875
M16
G05
G00X2.7158Y-1.9262
M15
G01X2.7158Y-1.875
M16
G05
M30
